<svg xmlns="http://www.w3.org/2000/svg" id="Capa_2" data-name="Capa 2" viewBox="0 0 279.41 89.86"><defs><clipPath id="clippath"><path fill="#fff" d="M56.78 71.92c0 5.07-1.39 9.29-4.15 12.65-2.87 3.53-6.64 5.29-11.32 5.29H15.47c-4.68 0-8.45-1.76-11.32-5.29C1.38 81.21-.01 77-.01 71.92V55.26c0-.45.32-.67.96-.67h18.63c.6 0 .91.22.91.67v19.07c0 2.88.25 4.97.76 6.27.76 2.12 2.26 3.19 4.49 3.19h15.81c4.58 0 6.88-4.18 6.88-12.54V55.26c0-.45.3-.67.91-.67h6.54c.6 0 .91.22.91.67v16.66Z"/></clipPath><clipPath id="clippath-1"><path fill="#fff" d="M125.3 89.19c0 .45-.3.67-.9.67h-7.99c-.76 0-1.86-.26-3.31-.77L72.92 74.95v14.24c0 .45-.3.67-.9.67h-6.85c-.63 0-.95-.22-.95-.67V55.26c0-.45.32-.67.95-.67h7.66c.63 0 1.58.22 2.84.67l40.94 14.5v-14.5c0-.45.32-.67.95-.67h6.85c.6 0 .9.22.9.67v33.93Z"/></clipPath><clipPath id="clippath-2"><path fill="#fff" d="M152.62 89.19c0 .45-.3.67-.91.67h-18.18c-.64 0-.96-.22-.96-.67V55.26c0-.45.32-.67.96-.67h18.18c.61 0 .91.22.91.67z"/></clipPath><clipPath id="clippath-3"><path fill="#fff" d="M194.37 74.28v-5.45c0-2.7-.3-4.58-.9-5.65-.82-1.47-2.39-2.2-4.71-2.2h-4.42c-2.19 0-3.66.78-4.42 2.35-.54 1.07-.81 2.9-.81 5.5v5.45c0 2.77.25 4.8.76 6.1.79 2.07 2.28 3.1 4.47 3.1h4.42c2.31 0 3.9-1 4.76-3 .57-1.3.86-3.37.86-6.2m21.21-2.05c0 4.9-1.46 8.99-4.38 12.25-2.92 3.27-6.71 4.9-11.37 4.9h-25.73c-4.63 0-8.41-1.63-11.34-4.9s-4.4-7.35-4.4-12.25 1.44-9.11 4.33-12.33 6.69-4.83 11.41-4.83h25.73c4.72 0 8.53 1.61 11.41 4.83 2.89 3.22 4.33 7.33 4.33 12.33Z"/></clipPath><clipPath id="clippath-4"><path fill="#fff" d="M125.92 34.62c0 .45-.3.67-.9.67H93.65c-4.46 0-8.14-1.57-11.03-4.71s-4.34-7.13-4.34-11.96V.67c0-.45.3-.67.9-.67h19.03c.6 0 .9.22.9.67v20.47c0 2.78.3 4.72.9 5.81.82 1.51 2.39 2.26 4.7 2.26h20.31c.6 0 .9.22.9.67v4.73Z"/></clipPath><clipPath id="clippath-5"><path fill="#fff" d="M213.77 34.71c0 .38-.32.57-.97.57h-23.91c-.28 0-.51-.09-.69-.26l-22.07-21.83-16.15 16.02h25.73c.58 0 .88.22.88.67v4.73c0 .45-.29.67-.88.67H138.5c-.65 0-.97-.19-.97-.57 0-.17.08-.34.23-.51L172.53.27c.15-.17.38-.26.69-.26h5.57c.31 0 .55.09.74.26l34.01 33.93c.15.17.23.34.23.51"/></clipPath><clipPath id="clippath-6"><path fill="#fff" d="M279.41 89.19c0 .45-.3.67-.89.67h-7.89c-.75 0-1.84-.26-3.27-.77l-39.71-14.14v14.24c0 .45-.3.67-.89.67h-6.77c-.62 0-.93-.22-.93-.67V55.26c0-.45.31-.67.93-.67h7.57c.62 0 1.56.22 2.8.67l40.46 14.5v-14.5c0-.45.31-.67.93-.67h6.77c.59 0 .89.22.89.67z"/></clipPath></defs><g id="LANDING"><path fill="#fff" d="M56.78 71.92c0 5.07-1.39 9.29-4.15 12.65-2.87 3.53-6.64 5.29-11.32 5.29H15.47c-4.68 0-8.45-1.76-11.32-5.29C1.38 81.21-.01 77-.01 71.92V55.26c0-.45.32-.67.96-.67h18.63c.6 0 .91.22.91.67v19.07c0 2.88.25 4.97.76 6.27.76 2.12 2.26 3.19 4.49 3.19h15.81c4.58 0 6.88-4.18 6.88-12.54V55.26c0-.45.3-.67.91-.67h6.54c.6 0 .91.22.91.67v16.66Z"/><g clip-path="url(#clippath)"><path fill="#fff" d="M0 54.6h56.78v35.26H0z"/></g><path fill="#fff" d="M125.3 89.19c0 .45-.3.67-.9.67h-7.99c-.76 0-1.86-.26-3.31-.77L72.92 74.95v14.24c0 .45-.3.67-.9.67h-6.85c-.63 0-.95-.22-.95-.67V55.26c0-.45.32-.67.95-.67h7.66c.63 0 1.58.22 2.84.67l40.94 14.5v-14.5c0-.45.32-.67.95-.67h6.85c.6 0 .9.22.9.67v33.93Z"/><g clip-path="url(#clippath-1)"><path fill="#fff" d="M64.23 54.6h61.08v35.26H64.23z"/></g><path fill="#fff" d="M152.62 89.19c0 .45-.3.67-.91.67h-18.18c-.64 0-.96-.22-.96-.67V55.26c0-.45.32-.67.96-.67h18.18c.61 0 .91.22.91.67z"/><g clip-path="url(#clippath-2)"><path fill="#fff" d="M132.56 54.6h20.06v35.26h-20.06z"/></g><path fill="#fff" d="M194.37 74.28v-5.45c0-2.7-.3-4.58-.9-5.65-.82-1.47-2.39-2.2-4.71-2.2h-4.42c-2.19 0-3.66.78-4.42 2.35-.54 1.07-.81 2.9-.81 5.5v5.45c0 2.77.25 4.8.76 6.1.79 2.07 2.28 3.1 4.47 3.1h4.42c2.31 0 3.9-1 4.76-3 .57-1.3.86-3.37.86-6.2m21.21-2.05c0 4.9-1.46 8.99-4.38 12.25-2.92 3.27-6.71 4.9-11.37 4.9h-25.73c-4.63 0-8.41-1.63-11.34-4.9s-4.4-7.35-4.4-12.25 1.44-9.11 4.33-12.33 6.69-4.83 11.41-4.83h25.73c4.72 0 8.53 1.61 11.41 4.83 2.89 3.22 4.33 7.33 4.33 12.33Z"/><g clip-path="url(#clippath-3)"><path fill="#fff" d="M158.37 55.07h57.21v34.31h-57.21z"/></g><path fill="#fff" d="M125.92 34.62c0 .45-.3.67-.9.67H93.65c-4.46 0-8.14-1.57-11.03-4.71s-4.34-7.13-4.34-11.96V.67c0-.45.3-.67.9-.67h19.03c.6 0 .9.22.9.67v20.47c0 2.78.3 4.72.9 5.81.82 1.51 2.39 2.26 4.7 2.26h20.31c.6 0 .9.22.9.67v4.73Z"/><g clip-path="url(#clippath-4)"><path fill="#fff" d="M78.27 0h47.65v35.29H78.27z"/></g><path fill="#fff" d="M213.77 34.71c0 .38-.32.57-.97.57h-23.91c-.28 0-.51-.09-.69-.26l-22.07-21.83-16.15 16.02h25.73c.58 0 .88.22.88.67v4.73c0 .45-.29.67-.88.67H138.5c-.65 0-.97-.19-.97-.57 0-.17.08-.34.23-.51L172.53.27c.15-.17.38-.26.69-.26h5.57c.31 0 .55.09.74.26l34.01 33.93c.15.17.23.34.23.51"/><g clip-path="url(#clippath-5)"><path fill="#fff" d="M137.53.02h76.24v35.26h-76.24z"/></g><path fill="#fff" d="M279.41 89.19c0 .45-.3.67-.89.67h-7.89c-.75 0-1.84-.26-3.27-.77l-39.71-14.14v14.24c0 .45-.3.67-.89.67h-6.77c-.62 0-.93-.22-.93-.67V55.26c0-.45.31-.67.93-.67h7.57c.62 0 1.56.22 2.8.67l40.46 14.5v-14.5c0-.45.31-.67.93-.67h6.77c.59 0 .89.22.89.67z"/><g clip-path="url(#clippath-6)"><path fill="#fff" d="M219.05 54.6h60.36v35.26h-60.36z"/></g></g></svg>