<?xml version="1.0" encoding="UTF-8"?>
<svg id="Capa_2" data-name="Capa 2" xmlns="http://www.w3.org/2000/svg" viewBox="0 0 172.59 209.98">
  <defs>
    <style>
      .cls-1 {
        fill: #fff;
      }

      .cls-2 {
        fill: #fcfdfd;
      }

      .cls-3 {
        fill: #fafafa;
      }

      .cls-4 {
        fill: #fdfefd;
      }

      .cls-5 {
        fill: #eaeaea;
      }

      .cls-6 {
        fill: #cfd0cf;
      }

      .cls-7 {
        fill: #fdfdfd;
      }

      .cls-8 {
        fill: #fdfdfc;
      }

      .cls-9 {
        fill: #fbfcfc;
      }

      .cls-10 {
        fill: #bcbcbb;
      }

      .cls-11 {
        fill: #fefefe;
      }

      .cls-12 {
        fill: #fcfcfc;
      }
    </style>
  </defs>
  <g id="Layer_2" data-name="Layer 2">
    <path class="cls-2" d="M172.39,19.95c-.02-10.63-9.31-19.74-19.62-19.75L21.74,0C10.32-.02,2.03,7.41,0,18.76L.11,156.96c.01,13.38,11.78,21.73,24.15,21.68l34.62-.14,90.21,.02c12.95,0,23.52-9.08,23.5-22.24l-.2-136.32Zm-2.27,137.08c0,9.17-7.77,18.75-17.66,18.75l-132.16,.03c-9.33,0-17.84-9.09-17.84-18.42l.02-137.15c0-10.41,9.35-17.95,19.16-17.95l129.73,.02c10.45,0,18.76,8.52,18.76,18.97l-.02,135.75Z"/>
    <g>
      <path class="cls-10" d="M112.74,43.7c-.6,.11-1.82,1.17-1.46,1.66,.56,.76,1.38,1.55,1.73,1.26l1.61-1.36c.21-.38-1.24-1.68-1.88-1.56Z"/>
      <g>
        <path class="cls-11" d="M92.08,45.54c-2.03-5.85-.38-11.52,3.45-16.18-8.06,1.64-13.07,8.78-12.75,16.35,.32,7.57,6.02,14.34,13.92,15.24,5.71,.65,11.07-2.28,13.71-7.18-7.28,3.29-15.94-1.32-18.33-8.23Z"/>
        <path class="cls-5" d="M112.55,26.46c-.77,2-1.88,3.1-3.92,3.87,2.32,.94,2.64,1.9,3.64,4.22,1.18-2.64,1.8-3.35,3.54-4.26-1.94-.95-2.67-1.83-3.26-3.82Z"/>
        <rect class="cls-6" x="100.96" y="36.68" width="2.86" height="2.91" transform="translate(2.21 81.73) rotate(-43.95)"/>
      </g>
    </g>
    <path class="cls-7" d="M115.37,128.57l-35.96-.24c-1.06,0-1.63-2.28-1.57-3.13,.52-6.77-7.11-5.15-9.94-8.65-2.4-2.96-1.41-8.49,1.79-12.34,.77-.93,.39-2.77-.03-4.12,2.15-1.76,4.65-2.94,7.34-3.84,3.61,8.43,5.64,18.62,14.96,18.72l29.03,.32c2.22,.02,4.16,3.92,3.99,5.72-.51,5.16-4.59,7.59-9.61,7.56Z"/>
    <path class="cls-4" d="M128.01,117.84c-1.94-2.89-4.1-5.96-7.68-5.97l-28.34-.09c-4.72-.01-7.7-4.43-8.23-8.7,13.23-3.53,25.92-5.62,39.34-6.23,3.16-.15,6.73,1.02,8.49,3.66,3.68,5.54,2.17,13.33-3.57,17.33Z"/>
    <path class="cls-7" d="M68.03,117.84c.92,.71-1.87,1.35-3.83,.91l-52.61-11.84c-1.95-.59-4.98-.69-5.84-3-1.25-3.35,.18-8.71,3.19-10.98,2.26-1.7,6.22-1.44,8.81-.95,6.64,1.26,11.87,4.69,17.24,8.46,1.54,1.08,27.95,5.47,34.05,2.4,0,0-7.11,10.29-1.01,14.99Z"/>
    <path class="cls-7" d="M110.09,85.84c-15.46,.81-28.27,2.94-42,10.78-3.56-2.18-6.95-2.25-7.13-5.59-.08-1.44,.61-3.3,2.27-4.06,9.17-4.17,18.8-6.92,28.91-7.46l18.12-.96c2.35-.12,3.82,1.78,3.85,3.75,.03,2.1-1.65,3.41-4.03,3.54Z"/>
    <path class="cls-8" d="M162.44,109.61l-24.06,3.1c.24-5.85-1.67-9.97-4.93-14.49l26.79-.69c3.29-.08,5.86,1.74,6.44,4.73,.47,2.46-.58,6.87-4.24,7.34Z"/>
    <path class="cls-9" d="M115.78,132.25l6.87,15.05c.67,1.47,.1,3.15-.64,4.21-.89,1.28-2.4,2.12-4.34,2.12h-36.47c-2.07-.01-3.56-1.06-4.41-2.11-1.44-1.81-1.55-3.65-.82-5.78l4.58-13.57c1.43-.29,2.61-.37,4.28,0l-4.93,16.7,38.81,.25-7.37-16.94c1.27-.4,3.36-.49,4.43,.06Z"/>
    <polygon class="cls-8" points="113.2 145.52 84.5 145.67 88.66 132.04 107.09 131.98 113.2 145.52"/>
    <path class="cls-12" d="M69.02,157.07c-3.32,.41-5.48,.39-8.16,.04l-6.02-33.13c3.04,1.36,5.82,2.24,9.1,3.02l5.07,30.07Z"/>
    <path class="cls-12" d="M38.04,98.59c-8.61-5.62-16.02-10.72-26.02-10.15,4.53-9.6,20.1-4.84,26.07,4.03,1.2,1.78,1.52,3.92-.05,6.13Z"/>
    <path class="cls-3" d="M73.4,152.93l-1.3,.67-4.06-24.44c2.57,.22,4.26,.14,6.44-.49,.82,.86,2.36,2.56,1.97,3.89l-4.36,14.69c-.51,1.72,.39,4.28,1.31,5.67Z"/>
    <path class="cls-1" d="M37.08,206.8h-6.46l-1.27,2.99h-2.47l5.81-12.91h2.36l5.83,12.91h-2.51l-1.29-2.99Zm-.79-1.88l-2.44-5.65-2.42,5.65h4.85Z"/>
    <path class="cls-1" d="M41.43,208.43l.83-1.86c1.03,.83,2.67,1.42,4.26,1.42,2.01,0,2.86-.72,2.86-1.68,0-2.79-7.67-.96-7.67-5.75,0-2.08,1.66-3.86,5.2-3.86,1.55,0,3.17,.41,4.3,1.14l-.76,1.86c-1.16-.68-2.44-1.01-3.56-1.01-1.99,0-2.8,.77-2.8,1.75,0,2.75,7.66,.96,7.66,5.7,0,2.07-1.68,3.84-5.22,3.84-2.01,0-4.02-.63-5.09-1.55Z"/>
    <path class="cls-1" d="M54.12,196.88h2.4v12.91h-2.4v-12.91Z"/>
    <path class="cls-1" d="M69.69,207.78v2.01h-9.69v-12.91h9.43v2.01h-7.03v3.36h6.24v1.97h-6.24v3.56h7.29Z"/>
    <path class="cls-1" d="M83.83,196.88v12.91h-1.97l-7.12-8.74v8.74h-2.38v-12.91h1.97l7.12,8.74v-8.74h2.38Z"/>
    <path class="cls-1" d="M89.92,198.91h-4.28v-2.03h10.96v2.03h-4.28v10.88h-2.4v-10.88Z"/>
    <path class="cls-1" d="M97.29,203.34c0-3.82,2.95-6.64,6.96-6.64s6.95,2.8,6.95,6.64-2.95,6.64-6.95,6.64-6.96-2.82-6.96-6.64Zm11.49,0c0-2.64-1.94-4.54-4.54-4.54s-4.54,1.9-4.54,4.54,1.94,4.54,4.54,4.54,4.54-1.9,4.54-4.54Z"/>
    <path class="cls-1" d="M122.38,196.88v12.91h-2.4v-10.9h-2.73v-2.01h5.13Z"/>
    <path class="cls-1" d="M135.42,206.08c0,2.4-2.08,3.89-5.29,3.89s-5.26-1.49-5.26-3.89c0-1.42,.74-2.47,2.07-3.08-1.03-.57-1.6-1.49-1.6-2.71,0-2.21,1.94-3.6,4.8-3.6s4.83,1.38,4.83,3.6c0,1.22-.59,2.14-1.64,2.71,1.35,.61,2.1,1.66,2.1,3.08Zm-2.42-.07c0-1.27-1.11-2.07-2.88-2.07s-2.84,.79-2.84,2.07,1.07,2.08,2.84,2.08,2.88-.78,2.88-2.08Zm-5.31-5.61c0,1.11,.92,1.81,2.44,1.81s2.47-.7,2.47-1.81c0-1.16-1-1.83-2.47-1.83s-2.44,.66-2.44,1.83Z"/>
    <path class="cls-1" d="M136.96,203.34c0-4.24,2.32-6.64,5.39-6.64s5.41,2.4,5.41,6.64-2.32,6.64-5.41,6.64-5.39-2.4-5.39-6.64Zm8.38,0c0-3.12-1.22-4.56-2.99-4.56s-2.97,1.44-2.97,4.56,1.22,4.56,2.97,4.56,2.99-1.44,2.99-4.56Z"/>
    <path class="cls-1" d="M149.34,199.83c0-1.73,1.38-3.1,3.14-3.1s3.14,1.37,3.14,3.1-1.38,3.08-3.14,3.08-3.14-1.37-3.14-3.08Zm4.98,0c0-1.07-.79-1.88-1.84-1.88s-1.86,.79-1.86,1.88,.81,1.86,1.86,1.86,1.84-.81,1.84-1.86Z"/>
  </g>
</svg>