<?xml version="1.0" encoding="UTF-8"?>
<svg id="Capa_2" data-name="Capa 2" xmlns="http://www.w3.org/2000/svg" viewBox="0 0 169.48 208.61">
  <defs>
    <style>
      .cls-1 {
        fill: #fff;
      }

      .cls-2 {
        fill: #fcfdfd;
      }

      .cls-3 {
        fill: #eaeaea;
      }

      .cls-4 {
        fill: #fffffe;
      }

      .cls-5 {
        fill: #cfd0cf;
      }

      .cls-6 {
        fill: #fdfdfd;
      }

      .cls-7 {
        fill: #bcbcbb;
      }

      .cls-8 {
        fill: #fefefe;
      }

      .cls-9 {
        fill: #fcfcfc;
      }
    </style>
  </defs>
  <g id="Layer_2" data-name="Layer 2">
    <path class="cls-2" d="M169.29,19.59c-.02-10.43-9.14-19.38-19.27-19.4L21.35,0C10.14-.02,1.99,7.28,0,18.42L.11,154.13c.01,13.14,11.56,21.34,23.72,21.29l33.99-.14,88.58,.02c12.72,0,23.09-8.92,23.08-21.84l-.2-133.86Zm-2.23,134.62c0,9-7.63,18.41-17.34,18.41l-129.78,.03c-9.16,0-17.52-8.92-17.52-18.09l.02-134.68c0-10.22,9.18-17.63,18.82-17.62l127.4,.02c10.26,0,18.43,8.37,18.43,18.63l-.02,133.31Z"/>
    <g>
      <path class="cls-7" d="M110.71,42.92c-.59,.11-1.79,1.15-1.43,1.63,.55,.75,1.36,1.53,1.7,1.24l1.58-1.34c.2-.37-1.21-1.65-1.85-1.53Z"/>
      <g>
        <path class="cls-4" d="M49.23,69.17c-3.59-3.13-7.08-6.12-10.18-9.82-.93-8-3.6-15.56-8.94-21.37-3.39-3.68-7.62-3.33-11.33-.28-1.88,1.54-4.68,3.73-3,6.56l11.14,18.76,23.87,40.37c.86-2.02-.24-3.56-.77-5.11-1.85-3.99-.9-8.3,2.7-11.16,2.66-2.12,5.48-2.88,8.68-3.67-3.91-5.4-7.47-10.16-12.18-14.27Z"/>
        <path class="cls-4" d="M109.99,117.45l-27.01-.16c-8.57-.05-11.57-10.59-14.58-18.85l-5.98,3.32c-2.31,1.28-4.6,1.14-7.87,.47l5.76,20.22c1.13,3.98,4.35,7.8,8.77,7.79l40.07-.02c3.47,0,6.29-3.53,6.42-6.53,.13-2.99-2.68-6.23-5.58-6.24Z"/>
        <path class="cls-8" d="M114.78,99.67c-13.36,.27-26.38,2.26-39.7,5.83,.69,3.59,3.33,8.44,7.47,8.49l28.29,.36c3.21,.04,5.55,3.02,7.47,5.43,4.26-2.75,5.43-6.81,5.24-11.41-.2-4.67-3.53-8.8-8.76-8.69Z"/>
        <path class="cls-8" d="M100.81,81.52c-15.39-.06-30.53,1.43-44.67,7.24-3.11,1.28-4.41,4.67-3.4,7.12,1.06,2.57,4.14,4.41,6.92,3.18l12.2-5.38c9.85-3.34,19.59-4.45,29.63-5.06,2.39-.15,4.2-2.24,3.78-4.19-.45-2.08-2.28-2.9-4.47-2.91Z"/>
        <path class="cls-8" d="M151.07,115.35l-25.08-11.18c1.45,5.31,1.36,9.98-1.89,14.3l23.01,8.42c3.36,1.23,6.07-2.18,6.65-4.37,.7-2.68,.1-5.91-2.69-7.15Z"/>
        <path class="cls-6" d="M106.4,133.97l-4.88,.04,7.31,16.68-37.34-.09,5.01-16.55c-1.66-.23-3.21-.3-4.95,.06l-4.45,14.84c-.52,1.75,.38,3.75,1.3,4.87,1.03,1.26,2.67,1.76,4.63,1.75l35.11-.13c1.98,0,3.6-1.12,4.28-2.18,.84-1.33,1.02-3.45,.38-4.89l-6.4-14.4Z"/>
        <path class="cls-8" d="M90.42,44.72c-1.99-5.74-.37-11.32,3.39-15.89-7.92,1.61-12.84,8.62-12.52,16.05,.32,7.44,5.91,14.08,13.67,14.96,5.61,.64,10.87-2.24,13.46-7.05-7.14,3.24-15.65-1.29-18-8.08Z"/>
        <path class="cls-9" d="M30.37,34.24c6.65,5.36,10.15,13.85,11.55,22.3,.23,1.06,.5,2.01,1.63,2.71,2.75-2.65,3.85-6.25,3.02-9.95-2.04-9.1-7.28-18.43-16.2-15.06Z"/>
        <path class="cls-3" d="M110.53,25.99c-.75,1.96-1.84,3.04-3.85,3.8,2.28,.92,2.6,1.86,3.57,4.14,1.16-2.59,1.77-3.29,3.48-4.18-1.9-.93-2.62-1.8-3.2-3.75Z"/>
        <rect class="cls-5" x="99.14" y="36.01" width="2.81" height="2.86" transform="translate(2.17 80.26) rotate(-43.95)"/>
      </g>
    </g>
    <path class="cls-1" d="M31.79,205.43h-6.46l-1.27,2.99h-2.47l5.81-12.91h2.36l5.83,12.91h-2.51l-1.29-2.99Zm-.79-1.88l-2.44-5.65-2.42,5.65h4.85Z"/>
    <path class="cls-1" d="M36.14,207.06l.83-1.86c1.03,.83,2.67,1.42,4.26,1.42,2.01,0,2.86-.72,2.86-1.68,0-2.79-7.67-.96-7.67-5.76,0-2.08,1.66-3.86,5.2-3.86,1.55,0,3.17,.41,4.3,1.14l-.76,1.86c-1.16-.68-2.44-1.01-3.56-1.01-1.99,0-2.8,.77-2.8,1.75,0,2.75,7.66,.96,7.66,5.7,0,2.07-1.68,3.84-5.22,3.84-2.01,0-4.02-.63-5.09-1.55Z"/>
    <path class="cls-1" d="M48.83,195.51h2.4v12.91h-2.4v-12.91Z"/>
    <path class="cls-1" d="M64.4,206.41v2.01h-9.69v-12.91h9.43v2.01h-7.03v3.36h6.24v1.97h-6.24v3.56h7.29Z"/>
    <path class="cls-1" d="M78.54,195.51v12.91h-1.97l-7.12-8.74v8.74h-2.38v-12.91h1.97l7.12,8.74v-8.74h2.38Z"/>
    <path class="cls-1" d="M84.63,197.54h-4.28v-2.03h10.96v2.03h-4.28v10.88h-2.4v-10.88Z"/>
    <path class="cls-1" d="M92,201.97c0-3.82,2.95-6.64,6.96-6.64s6.95,2.8,6.95,6.64-2.95,6.64-6.95,6.64-6.96-2.82-6.96-6.64Zm11.49,0c0-2.64-1.94-4.54-4.54-4.54s-4.54,1.9-4.54,4.54,1.94,4.54,4.54,4.54,4.54-1.9,4.54-4.54Z"/>
    <path class="cls-1" d="M117.09,195.51v12.91h-2.4v-10.9h-2.73v-2.01h5.13Z"/>
    <path class="cls-1" d="M129.96,204.42c0,2.56-2.08,4.19-4.72,4.19-3.52,0-5.59-2.27-5.59-6.42,0-4.43,2.58-6.86,6.33-6.86,1.29,0,2.53,.28,3.39,.83l-.89,1.81c-.7-.46-1.55-.63-2.45-.63-2.44,0-3.97,1.51-3.97,4.45v.02c.77-.9,2.01-1.35,3.45-1.35,2.55,0,4.45,1.55,4.45,3.97Zm-2.32,.11c0-1.35-1.01-2.2-2.58-2.2s-2.62,.94-2.62,2.21,.96,2.18,2.68,2.18c1.49,0,2.53-.85,2.53-2.2Z"/>
    <path class="cls-1" d="M131.21,201.97c0-4.24,2.32-6.64,5.39-6.64s5.41,2.4,5.41,6.64-2.32,6.64-5.41,6.64-5.39-2.4-5.39-6.64Zm8.38,0c0-3.12-1.22-4.56-2.99-4.56s-2.97,1.44-2.97,4.56,1.22,4.56,2.97,4.56,2.99-1.44,2.99-4.56Z"/>
    <path class="cls-1" d="M143.59,198.46c0-1.73,1.38-3.1,3.14-3.1s3.14,1.37,3.14,3.1-1.38,3.08-3.14,3.08-3.14-1.37-3.14-3.08Zm4.98,0c0-1.07-.79-1.88-1.84-1.88s-1.86,.79-1.86,1.88,.81,1.86,1.86,1.86,1.84-.81,1.84-1.86Z"/>
  </g>
</svg>