<svg xmlns="http://www.w3.org/2000/svg" id="Capa_2" data-name="Capa 2" viewBox="0 0 79.7 70.95"><g id="LANDING"><path fill="#97d5c9" d="M37.96 24.32c-3.33-4.18-9.41-4.86-13.59-1.53s-4.87 9.41-1.54 13.59a9.64 9.64 0 0 0 9.13 3.51l-3.84-5.14a4.744 4.744 0 0 1 .76-6.68l.21-.17a3.75 3.75 0 0 1 5.27.6l4.78 5.99c1.52-3.23 1.21-7.18-1.17-10.16Z"/><path fill="#0b5886" d="M34.73 28.24a3.744 3.744 0 0 0-5.25-.69l-.21.16c-2.08 1.6-2.48 4.59-.88 6.67l3.75 5.21 8.26 11.48c.19.41 6.13 8.24 6.13 8.24-1.17-.17-2.5-.37-3.72-.6-2.86-.53-6.57.48-8.62 1.71-1.08.65-1.73 1.36-1.94 2.13-.07.25-.12.5-.15.77-.24 1.7.22 3.8 1.76 4.42.67.27 1.43.21 2.23.14 1.06-.08 2.64-.5 4.41-.05 2.98.77 9.75 2.39 13.65 3.04.66-.07 2.32.15 2.95.05 2.01-.17 3.73-.21 4.45-.06.56.11 3.02-.34 3.02-.34 2.12-.19 5.37-1.34 8.37-3.65 2.99-2.3 5.85-4.21 6.51-7.52l.11-.08-.05-.17c.61-3.45-.12-7.02-2.32-9.89-.55-.71-2.56-3.33-2.93-3.82l-7.61-9.9c-.52-.67-2.4-2.81-4.81-2.03-1.16.38-1.93 1.16-2.42 2.04l-.17.14-.05.04c-1.28-.99-2.72-1.15-4.1-.43-1.67.88-2.35 2.1-2.62 3.01-1.62-.84-3.36-.59-4.91.82-1.16 1.06-1.61 2.38-1.67 3.69l-6.49-8.45-4.67-6.08Z"/><path fill="#5a6e7f" d="m57.28 29.45 2.83.47c.55.09 1.06-.34 1.03-.9a30.34 30.34 0 0 0-6.62-17.51c-10.51-13.19-29.8-15.37-43-4.85-.91.72-1.78 1.5-2.61 2.33-10.04 10-11.81 25.95-4.22 37.92 4.13 6.51 10.38 11.1 17.56 13.12.53.15 1.07-.25 1.11-.8l.17-2.86a.88.88 0 0 0-.63-.89c-5.2-1.6-9.8-4.78-13.15-9.25-8.13-10.83-6.53-26.3 3.65-35.21 11.23-9.9 28.36-8.22 37.57 3.33 3.3 4.14 5.2 9.12 5.58 14.29.03.41.33.74.73.81"/><path fill="#0b5886" d="m44.59 27.33 3 .5c.62.11 1.14-.45 1.01-1.06-.58-2.78-1.79-5.39-3.6-7.66-5.4-6.78-14.94-8.87-22.68-4.97-2.26 1.13-4.3 2.75-5.91 4.71-5.53 6.67-5.62 16.44-.21 23.22 1.81 2.28 4.08 4.03 6.66 5.22a.89.89 0 0 0 1.26-.75l.18-3.03a.87.87 0 0 0-.46-.82 13.7 13.7 0 0 1-4.08-3.45c-3.61-4.53-4.01-10.91-.99-15.87 1.69-2.77 4.36-4.89 7.43-5.92 5.51-1.84 11.64-.03 15.25 4.51 1.12 1.41 1.95 3.02 2.45 4.74.1.33.36.58.7.63Z"/></g></svg>