<svg xmlns="http://www.w3.org/2000/svg" id="Capa_2" data-name="Capa 2" viewBox="0 0 448.29 452.25"><g id="Layer_2" data-name="Layer 2"><g id="iconos_ejecutivo" data-name="iconos ejecutivo"><g id="Generative_Object" data-name="Generative Object"><path fill="#fcfdfd" d="M172.75 19.86C172.73 9.43 163.61.48 153.48.46L24.82.27C13.6.26 5.45 7.55 3.47 18.69l.11 135.71c.01 13.14 11.56 21.34 23.72 21.29l33.99-.14 88.58.02c12.72 0 23.09-8.92 23.08-21.84l-.2-133.86Zm-2.23 134.62c0 9-7.63 18.41-17.34 18.41l-129.78.03c-9.16 0-17.52-8.92-17.52-18.09L5.9 20.15c0-10.22 9.18-17.63 18.82-17.62l127.4.02c10.26 0 18.43 8.37 18.43 18.63l-.02 133.31Zm-1.23 108.96c-.02-10.43-9.14-19.38-19.27-19.4l-128.67-.19c-11.21-.02-19.36 7.28-21.35 18.42l.11 135.71c.01 13.14 11.56 21.34 23.72 21.29l33.99-.14 88.58.02c12.72 0 23.09-8.92 23.08-21.84l-.2-133.86Zm-2.23 134.62c0 9-7.63 18.41-17.34 18.41l-129.78.03c-9.16 0-17.52-8.92-17.52-18.09l.02-134.68c0-10.22 9.18-17.63 18.82-17.62l127.4.02c10.26 0 18.43 8.37 18.43 18.63l-.02 133.31Zm273.98-134.62c-.02-10.43-9.14-19.38-19.27-19.4l-128.67-.19c-11.21-.02-19.36 7.28-21.35 18.42l.11 135.71c.01 13.14 11.56 21.34 23.72 21.29l33.99-.14 88.58.02c12.72 0 23.09-8.92 23.08-21.84l-.2-133.86Zm-2.23 134.62c0 9-7.63 18.41-17.34 18.41l-129.78.03c-9.16 0-17.52-8.92-17.52-18.09l.02-134.68c0-10.22 9.18-17.63 18.82-17.62l127.4.02c10.26 0 18.43 8.37 18.43 18.63l-.02 133.31Z"/><path fill="#bcbcbb" d="M114.18 43.19c-.59.11-1.79 1.15-1.43 1.63.55.75 1.36 1.53 1.7 1.24l1.58-1.34c.2-.37-1.21-1.65-1.85-1.53"/><path fill="#fffffe" d="M52.7 69.45c-3.59-3.13-7.08-6.12-10.18-9.82-.93-8-3.6-15.56-8.94-21.37-3.39-3.68-7.62-3.33-11.33-.28-1.88 1.54-4.68 3.73-3 6.56L30.39 63.3l23.87 40.37c.86-2.02-.24-3.56-.77-5.11-1.85-3.99-.9-8.3 2.7-11.16 2.66-2.12 5.48-2.88 8.68-3.67-3.91-5.4-7.47-10.16-12.18-14.27Zm60.75 48.27-27.01-.16c-8.57-.05-11.57-10.59-14.58-18.85l-5.98 3.32c-2.31 1.28-4.6 1.14-7.87.47l5.76 20.22c1.13 3.98 4.35 7.8 8.77 7.79l40.07-.02c3.47 0 6.29-3.53 6.42-6.53.13-2.99-2.68-6.23-5.58-6.24"/><path fill="#fefefe" d="M118.24 99.94c-13.36.27-26.38 2.26-39.7 5.83.69 3.59 3.33 8.44 7.47 8.49l28.29.36c3.21.04 5.55 3.02 7.47 5.43 4.26-2.75 5.43-6.81 5.24-11.41-.2-4.67-3.53-8.8-8.76-8.69Zm-13.96-18.15c-15.39-.06-30.53 1.43-44.67 7.24-3.11 1.28-4.41 4.67-3.4 7.12 1.06 2.57 4.14 4.41 6.92 3.18l12.2-5.38c9.85-3.34 19.59-4.45 29.63-5.06 2.39-.15 4.2-2.24 3.78-4.19-.45-2.08-2.28-2.9-4.47-2.91Zm50.26 33.83-25.08-11.18c1.45 5.31 1.36 9.98-1.89 14.3l23.01 8.42c3.36 1.23 6.07-2.18 6.65-4.37.7-2.68.1-5.91-2.69-7.15Z"/><path fill="#fdfdfd" d="m109.86 134.24-4.88.04 7.31 16.68-37.34-.09 5.01-16.55c-1.66-.23-3.21-.3-4.95.06l-4.45 14.84c-.52 1.75.38 3.75 1.3 4.87 1.03 1.26 2.67 1.76 4.63 1.75l35.11-.13c1.98 0 3.6-1.12 4.28-2.18.84-1.33 1.02-3.45.38-4.89z"/><path fill="#fefefe" d="M93.89 44.99c-1.99-5.74-.37-11.32 3.39-15.89-7.92 1.61-12.84 8.62-12.52 16.05.32 7.44 5.91 14.08 13.67 14.96 5.61.64 10.87-2.24 13.46-7.05-7.14 3.24-15.65-1.29-18-8.08Z"/><path fill="#fcfcfc" d="M33.84 34.51c6.65 5.36 10.15 13.85 11.55 22.3.23 1.06.5 2.01 1.63 2.71 2.75-2.65 3.85-6.25 3.02-9.95-2.04-9.1-7.28-18.43-16.2-15.06"/><path fill="#eaeaea" d="M113.99 26.26c-.75 1.96-1.84 3.04-3.85 3.8 2.28.92 2.6 1.86 3.57 4.14 1.16-2.59 1.77-3.29 3.48-4.18-1.9-.93-2.62-1.8-3.2-3.75Z"/><path fill="#cfd0cf" d="m102.01 37.652 2.023-1.95 1.985 2.06-2.023 1.95z"/><path fill="#fdfdfd" d="M91 382.82c-1.55-.16-2.23-.39-2.86-1.13-.42-.5-.13-2.65.7-2.54 12.28 1.62 23.84-2.54 32-11.85 13.47-15.39 7.57-29.34 10.79-30.58.57-.22 1.73.29 1.9 1.28 1.64 11.01-1.88 21.44-8.74 29.89-8.36 10.28-20.02 16.37-33.79 14.94Z"/><path fill="#fcfcfc" d="M125.11 339.27c1.57 19.03-13.76 36.3-34.03 34.71-.81-.06-1.58-.9-1.88-1.28-.4-.5-.64-1.52.32-2.65 18.01 2.52 33.31-12.09 32.21-30.32-.08-1.26.08-1.84 1.08-2.14.75-.22 2.19.29 2.31 1.68Z"/><path fill="#fbfbfb" d="M107.63 360.05c-6.84 5.51-17.59 5.51-17.65 2.59-.02-1.38 1.15-1.97 2.7-1.81 11.54 1.21 20.77-8.92 20.03-20.39-.07-1.07.32-1.95 1.06-2.37 3.73-2.1 4.54 13.37-6.15 21.97Zm11.53 23.83c-2.56 6.92-32.1 11.53-32.29 5.9-.14-4.23 13.5 2.99 31.11-8.13.58-.37 1.4 1.64 1.17 2.24Zm20.36-22.72c-.64 1.61-3.81 1.06-3.96-.09 2.97-7.29 4.64-15.46 3.76-23.17-.12-1.06.9-1.88 1.47-2.01 3.93-.91 2.7 15.29-1.27 25.27"/><path fill="#e2e3e2" d="m90.64 352.56 4.11 1.81c-.69-1.75-1.64-2.79-1.42-4.44l4.18 1.17c-.74-1.63-2.16-2.56-1.3-4.41 2.17 1.45 2.53 4.05 3.63 6.29-1.46 1.21-2.76-.22-4.54-.65.67 1.13 1.77 3.56.76 4.07-2.21.15-3.85-1.8-5.36-2.42-.51-.5-.3-1.14-.06-1.42"/><path fill="#d9d9d9" d="m105.25 342.89-1.47 2.62.69 3.04c-2.32-1.01-3.03-3.05-4.66-4.81.87-1.45 1.72-2.83 3.88-3.38-.06 1.43-1.5 1.83-2.19 3.88 1.51.15 1.65-1.1 3.75-1.35"/><path fill="#cfd0cf" d="M109.15 343.77c-2.11-.57-3.99-2.44-4.81-5.18 2.04.99 3.75 2.39 4.81 5.18"/><path fill="#d6d7d6" d="m97.405 345.702.97-.94 4.717 4.87-.97.94z"/><path fill="#fff" d="M138.33 383.17c-.37-1.69-.3-3.34-.07-5.17l4.98-.87c.96 1.87 1.2 3.92 1 6.14zm7.76-.13-.78-6.13c.11-.93 2.12-1.6 3.07-1.74 1.59 2.34 2.63 4.78 2.85 7.78-1.75.45-3.01.49-5.14.09m2.4 9.61c-1.19.28-3.32-.66-3.17-1.66l.89-5.75c1.6-.47 3.12-.41 4.97-.17-.2 2.7-.92 5.09-2.69 7.58m-12.14-9.5-5.85.28c-.29-2.15.08-4.14.86-6.31l4.75 1.07c.87.9.62 3.3.23 4.96Zm-6.54 8.07c-1.09.87-1.98 1.28-3.16 1.6-1.91-2.2-2.83-4.87-2.83-7.75 1.83-.23 3.07-.23 4.79.02zm13.71-.51-5.28-.88-.09-4.79 6.22-.04c0 1.94-.19 3.22-.85 5.71m-7.1-.86-5.09.92c-.71-1.93-1.07-3.7-.86-5.76l6.01-.04c.2 1.67.23 2.87-.07 4.87Zm-7.74-6.97c-1.62.59-3.08.64-5.07.14.23-2.69 1.02-5.03 2.69-7.22.52-.68 2.91.24 3.02 1.17.22 1.97-.33 3.45-.64 5.91m14.07-7.33c-1.72.8-3.02.87-4.55.48l.11-6.34c2.46 1.11 3.83 3.33 4.43 5.86Zm-.08 16.87c-.49 2.55-2.06 4.95-4.45 5.81v-6.38c1.47-.39 2.75-.23 4.45.56Zm-6.09-16.2c-1.73.05-3.01-.1-4.7-.6.76-2.72 2.13-4.68 4.59-5.9l.11 6.51Zm-.21 21.96c-2.38-1.04-3.61-3.22-4.48-5.89 1.7-.51 2.9-.68 4.62-.67l-.15 6.56Zm-6-23.3c-.67.24-2.34-.49-2.46-1.23.96-1.66 2.74-2.81 4.78-3.37zm16.24-1.64c.6.74-1.66 2.38-2.26 1.33l-2.44-4.31c1.85.44 3.39 1.36 4.7 2.98m-.15 20.88c-.53 1.76-2.32 2.67-3.95 3.35.16-1.48 1.22-3.44 2.13-4.3.25-.24 1.82.49 1.83.95Zm-14.06 3.32c-1.44-.65-2.63-1.34-3.93-2.7-.4-.42.32-1.3.73-1.46 1.51-.59 2.03 1.13 3.2 4.16"/><path fill="#fefefe" d="M95.73 341.19c1.02 1.05-.51 3.05-1.71 2.62-1.75-.63-2.58-2.43-3.62-4.04l-11.31 11.07c-3.45-6.69-2.09-14.46 2.65-19.89 5.41-6.19 13.72-8.49 21.33-4.58l-10.76 11.3 3.42 3.53ZM73.57 326.7c-.39 1.83-1.33 1.57-1.58-.24-.42-.13-1.31-.72-1.31-1.18-1-.17-1.83-.88-2.48-2.14l-10.67-10.92c-1.22 1.29-2.33 1.61-3.34.97l-2.23 1.91c-.34-.37-.91-.64-.99-.96-.05-.22.03-.8.33-1.09l9.44-9.35c2.62-.88 6.43 2.66 7.88 5.71l4.61 3.83c.83.69 4.25 5.64 6.51 5.37.71-.09 1.07-1.35 2.01-2.01 1.61-1.13 6.1 2.39 4.53 4.5-1.49 2-5.19 3.69-7.17 5.83-1.75-.44-4.03-1.88-5.56-.22Zm18.85-14.18-7.75-7.57 14.48-14.46c2.91 2.4 5.06 4.85 7.38 7.78zm16.16-16.35-7.4-7.85c4.7-4.68 9.3-9.17 13.92-14.46l7.69 7.74-14.2 14.56Zm-74.11 40.98 14.515-14.52 7.708 7.706-14.514 14.52zm-16.199 16.353 14.305-14.445 7.83 7.754-14.304 14.445zM35.24 370.79l-7.47-7.4 14.27-14.6 7.49 7.83zm15.97-16.38-7.14-7.61 14.11-14.58 7.52 7.65zm40.333-75.608 14.379-14.43 7.65 7.624-14.379 14.43zm5.737 9.488-14.32 14.89-7.18-7.97 14.11-14.58z"/><path fill="#fdfdfd" d="M49.15 303.55c.46-.86-1.07-2.88-.88-3.85.5-2.67 3.8-5.19 5.52-5.36.9-.09 2.22 1.2 3.08 1.52 1.33-.67 2.37-2.25 3.73-2.31 1.66-.07 3.2.62 4.07 2.29L49.15 311.3c-1.26.1-1.79-2.11-1.93-3.05-.25-1.56.96-2.86 1.93-4.68Z"/><path fill="#020403" d="m70.69 325.28-3.4 2.76-11.65-11.69c-.99-1-1.66-1.95-1.44-3.16l3.33-2.89 11.24 11.51c1.08 1.11 1.92 2.07 1.91 3.47Z"/><path fill="#fefefe" d="M51.97 315.1c-1.06-1.04 1.09-2.9 2.23-1.91.87.2 1.56.83 2.06 1.89l11 11.05c1.31-1.22 2.45-1.5 3.43-.85 1.52-.65 1.61-.44 1.31 1.18l.57 1.59c-4.03 4.19 1.14 1.62 1.01-1.35-1.03-3 3.18-2.13 5.21-1.3 6.72-3.81 8.01-6.39 3.87-7.72-1.66 2.32-3.46 2.8-5.41 1.45-4.39-3.9-8.48-8.04-12.26-12.43q-2.385-1.41-4.23-3c2.1-2.08 3.73-4.6 6.47-6.13l10.63 10.64 4.5-4.93 2.31 2.38-4.83 4.61 10.98 11.5c-8.18 2.83-14.23 8.82-16.46 16.98l-11.32-11.53-4.48 4.57-1.9-2.07 4.44-4.73-9.11-9.88Z"/><path fill="#0d0d0d" d="m77.58 315-11.03-11.53c-.46-.48-.38-1.19-.16-1.56.29-.49 1.25-.77 1.86-.14l11.19 11.3c.55.56.58 1.35.4 1.75-.34.77-1.51.97-2.26.18"/><path fill="#101110" d="M73.57 326.7c.35.43.84 1.08.9 1.6.14 1.16-2.34 3.66-3.33 3.43-.59-.14-1.4-.98-1.53-1.67-.22-1.16 1.56-1.93 2.38-3.61l1.58.24Z"/><path fill="#fefefe" d="M74.81 329.99c.44-.46 1.07-.16 1.16.13.06.2-.43.59-.59.75-.43.45-1.17-.26-.57-.88"/><path fill="#fcfcfc" d="M422.09 0 289.38.25c-9.29.02-18.34 9.21-18.35 18.72l-.05 135.15c0 13.32 12.09 21.38 24.39 21.34l126.33-.48c11.1-.04 20.26-10.49 20.26-21.69l.03-134.13C440.16 8.44 432.91.72 422.08.01Zm17.42 154.14c0 9.85-8.23 17.32-17.69 18.72l-131.04-.28c-9.28-.02-17.55-9.44-17.55-18.69V19.82c0-8.87 8.07-17.38 16.85-17.4l129.35-.29c10.75-.02 20.12 7.46 20.12 18.8z"/><path fill="#fffefe" d="M348.47 93.88c-2.13-.56-4.25-.88-5.45-2.58l3.81-8.34-11.2 4.03c-2.79 1.45-4.54 3.89-5.98 6.6l-9.15 17.27-7.12-19.53-13.99 5.78 9.49 30.94c1.23 4.03 3.98 6.94 7.92 7.79 3.7.8 7.61-.83 9.96-4.01l11.76-15.89.45 38.08c1.76.79 3.46.81 4.34-.35-1.96-2.27-1.29-5.57.72-5.72l5.62-.41c2.73-5.57 8-8.91 14.44-8.97v-17.88l-18.33-22.12 2.69-4.71Z"/><path fill="#fffffe" d="m382.52 51.1.37-5.21c-7.01 5.41-18.1 5.29-26.97 3.31-2.56-.57-4.7-1.53-6.66-3.32l.41 5.24c-.77.26-1.95.61-2.24 1.06-1.5 4.12.38 7.91 3.94 10.11 1.14 5.02 3.68 9.31 7.68 12.29 5.16 3.84 12.03 3.08 16.14-1.85 2.95-2.96 4.62-6.71 5.79-10.93 3.03-1.53 4.08-4.2 3.9-7.16.41-1.77-.46-3.15-2.36-3.54"/><path fill="#fefefe" d="m380.76 80.56-9.88 25.74c-2.26.56-.92-4.98-3.22-10.57.72-1.35 2.73-2.74 2.52-4.41-.22-1.71-2.31-2.75-3.54-4.19l8.54-7.1c1.26-1.05 1.67-2.78.28-4.19-4.99 5.41-12.78 5.31-18.46.49-.5-.42-1.56.51-1.31 1.22.15.43.15 1.04.8 1.62l9.03 8-3.71 4.42 2.73 4.25-2.8 11.16-9.53-24.9c-.26-.68-.82-.79-1.31-.68-.37.08-.54.3-.75.8l-3.53 8.26c1.47.48 4.46.54 5.17 2.17.73 1.68-1.62 3.77-2.84 5.39l17.01 20.62 17.2-20.63c-1.27-2.05-2.77-3.29-3.3-5.57l5.91-2.06c-1.76-3.27-2.36-6.47-5-9.84Zm-74.8-11.3c-4.32 2.09-.07 6.29-2.03 9.41-3.47-3.37-6.94-5.95-9.33-10.06-1.03-1.77-4.72-4.07-6.48-2.03-2.59 3-1.53 8-.13 11.36 1.74 4.16 4.72 7.03 7.95 10.04l5.52 5.15 8.75-3.71c.77-4.17.55-8.16-1.03-12.1z"/><path fill="#f4f5f5" d="M337.32 157.71h78.17v3.18h-78.17z"/><path fill="#fefefe" d="M349.31 41.73c1.71 2.56 3.96 3.61 6.47 4.33 8.42 2.44 20.8 2.48 27.38-3.91-10.36-5.18-22.81-4.62-33.85-.42"/><path fill="#f7f8f7" d="m353.34 155.15 24.88-.1c2.4-.22 5.57-2.05 7.19-4.07l-39.85.03c2.5 1.99 5.39 3.18 7.77 4.14Z"/><path fill="#fdfdfd" d="M365.38 141.53c-4.83.15-9.89 1.95-12.52 6.82h25.66c-3.1-4.84-7.9-6.98-13.14-6.82"/><path fill="#fffffe" d="M408.86 95.12c-.76-3.13-3.86-5.36-6.83-6.41l-16.68-5.92 3.87 9.15-5.58 2.14 2.68 4.49-19.23 23.21v16.55c6.63.3 11.85 3.87 14.94 9.55 2.26.25 4.52.22 6.66-.51.17-3.8-.56-7.16.45-10.77l7.56-.2.93-17.7 4.5 17.61 6.07.11c3.95.07 6.9 1.55 9.17 4.84.84-5.49.21-10.16-.99-15.12l-7.51-31.02Z"/><path fill="#0c0e0d" d="M388.74 106.57c-2.15 1.94-4.73 1.64-7.97 1.2 1.06 3.03 8.36 4.55 8.35 4.56 3.53-2.05 6.92-.93 8.03-4.47-3.33.22-5.96.58-8.41-1.28Z"/><path fill="#090909" d="M394.19 114.49c-3.74-.54-7.42-.45-11.35-.16-1.1.08-.94 3.73.29 3.74l11.02.04c.87-.92.8-3.52.03-3.63Z"/><path fill="#212221" d="M371.78 134.29a1.73 1.73 0 1 0 .001 3.461 1.73 1.73 0 0 0-.001-3.461"/><circle cx="371.81" cy="127" r="1.69" fill="#1f1f1f"/><path fill="#fefefe" d="M373.76 20.85c-5.48-3.05-9.87-2.98-15.32.01-4.18 2.29-9.2 3.41-12.79 7.16-1.15 1.2-2.97 2.84-2.8 4.76.27 2.96 2.85 5.36 5.37 6.47 11.7-4.74 24.4-4.52 35.89 0 2.54-1.74 4.44-3.25 4.97-5.87.38-1.85-.98-3.4-2.05-4.68-3.49-4.18-8.9-5.42-13.27-7.85"/><path fill="#070908" d="M369.3 27.36c-2.65-1.53-3.86-1.54-6.51.02-1.75 1.03-4.84.14-6.94.2 1.4 2.55 3.91 3.99 6.97 3.85 1.83 2.33 4.48 2.18 6.65-.06 3.16.17 5.66-1.45 6.99-3.71-2.37-.19-5.38.74-7.16-.3"/><path fill="#fefefe" d="m407.59 139.64-15.94-.05.28 10.38c.05 2 1.37 3.69 2.53 4.48 1.7 1.17 3.75 1.11 5.75.75 3.96.96 7.03-.49 8.74-4.35 3.01.27 4.46-1.31 5.5-2.72 1.11-1.51 1.57-3.97.03-5.62-1.55-1.66-4.54-2.88-6.9-2.89Z"/><path fill="#111211" d="m409.55 142.57-.28 6.53c3.33-.33 3.92-2.18 4.04-3.85.12-1.78-1.45-3.12-3.76-2.68"/><path fill="#fefefe" d="M392.39 392.35c-23.85-2.64-47.78-2.7-71.71.04-.68-.95-.41-2.14.14-3.12.44-.78 1.53-1.38 2.95-1.51l15.27-1.38-.06-4.55 34.49-.08.36 4.56 15.09 1.39c2.41.22 4.18 2.01 3.47 4.65"/><path fill="#fff" d="M423.21 281.02c-44.76 5.55-89.71 5.52-134.41-.05-3.42-.43-5.45 2.6-5.45 5.41v92.09c.01 2.78 2.63 5.11 5.3 4.7 24.34-3.75 48.25-5.15 72.97-4.84 20.59.26 40.37 1.23 60.91 4.75 3.81.65 7.04-1.1 7.04-5.23l.06-90.79c0-3.72-2.34-6.55-6.42-6.04m1.33 93.16c-44.65-5.77-90.73-6.07-136.25-.09l-.04-87.89c44.87 5.7 91.04 5.39 136.29.26z"/><circle cx="416.42" cy="377.57" r="1.88" fill="#0f1010"/><path fill="#fefefe" d="m372.08 328.95-23.4-13.86-.17 30.05 23.89-14.09c.68-.4.23-1.76-.33-2.1Z"/><path fill="#fdfdfd" d="m401.33 306.07.05 16.76c3.17-1.25 5.94-1.86 9.23-2.18l-.11-18.2c-3.4.4-6.74 1.38-9.16 3.62Z"/><path fill="#fefefd" d="M390.2 302.6v18.06c3.49.17 6.15.97 9.38 2.16l-.19-17.03c-2.83-1.87-5.93-3.2-9.18-3.18Z"/><path fill="#d0d1d0" d="M412.08 306.84v17.41l-11.35.5-11.99-.54-.91-18.69-.36 19.29c4.14 1.25 7.97-.46 13.04 2.33 5.89-3.26 9.8-.51 12.81-2.61l.09-18.89c-.64-.02-1.32.67-1.32 1.2Z"/><path fill="#fefefe" d="m326.84 319.79-2.45-1.43h-17.1c-.83.01-2.12 1.76-2.97 1.38-.73-.33-1.04-1.52-2.86-1.8l.03 25.84 3.39-1.6 2.39 1.27 17.11-.06c.89 0 2.21-1.6 2.97-1.2l2.98 1.57-.05-25.62c-2.04.82-2.85 2-3.45 1.65Z"/><path fill="#040605" d="M312.13 336.41c3.49-1.99 6.43-2.98 8.93-5.6l-9.18-5.48z"/><path fill="#262727" d="m325.303 324.731.048-3.03 3.35.053-.048 3.03z"/><path fill="#202121" d="m302.99 329.82.05-3.02 3.52.06-.051 3.02z"/><path fill="#232323" d="M327 326.63c-.99 0-1.79.8-1.79 1.79s.8 1.79 1.79 1.79 1.79-.8 1.79-1.79-.8-1.79-1.79-1.79"/><path fill="#1f201f" d="M304.78 321.56a1.741 1.741 0 0 0 0 3.48 1.741 1.741 0 0 0 0-3.48"/><path fill="#0d0e0d" d="m303.008 331.94 3.53-.028.024 3.06-3.53.028z"/><path fill="#0f100f" d="m325.177 334.92.098-3.108 3.398.107-.097 3.109z"/><path fill="#0f1010" d="m302.982 340.115.023-2.94 3.53.028-.023 2.94z"/><path fill="#121313" d="m325.215 340.069.07-2.94 3.398.081-.069 2.94z"/><path fill="#fefefe" d="M403.93 341.97c-2.33 1.27-4.66 1.34-7.06.09-3.67-1.93-7.78-.57-9.32 3.44-2.11 5.46-3.57 14.42-.02 16.08.97.45 2.39-.05 3.3-.91l4.81-4.59h9.6l4.98 4.81c1.17 1.13 2.69 1.19 3.57.51 2.96-2.3 1.43-10.77-.55-15.74-1.57-3.94-5.63-5.68-9.31-3.68Z"/><path fill="#101110" d="m394.85 347.27-.68-2.2c-.09-.29-1.4-.21-1.48.14-.4 1.65-1.44 2.53-2.86 3.01-.36.33-.02 1.64.33 1.54 1.81-.52 2.72 4.73 3.66 2.95 1.1-2.07 1.74-2.57 3.2-3.29.6-1.21-2-1.62-2.17-2.15"/><path fill="#232323" d="M407.23 350.12c-.87 0-1.57.7-1.57 1.57s.7 1.57 1.57 1.57 1.57-.7 1.57-1.57-.7-1.57-1.57-1.57"/><circle cx="404.44" cy="348.78" r="1.47" fill="#252625"/><path fill="#141414" d="M407.33 344.52c-.85 0-1.55.69-1.55 1.55s.69 1.55 1.55 1.55 1.55-.69 1.55-1.55-.69-1.55-1.55-1.55"/><path fill="#181818" d="M410.23 347.33c-.82 0-1.49.67-1.49 1.49s.67 1.49 1.49 1.49 1.49-.67 1.49-1.49-.67-1.49-1.49-1.49"/></g><path fill="#fff" d="M35.26 205.71H28.8l-1.27 2.99h-2.47l5.81-12.91h2.36l5.83 12.91h-2.51zm-.79-1.88-2.44-5.65-2.42 5.65h4.85Zm5.14 3.5.83-1.86c1.03.83 2.67 1.42 4.26 1.42 2.01 0 2.86-.72 2.86-1.68 0-2.79-7.67-.96-7.67-5.76 0-2.08 1.66-3.86 5.2-3.86 1.55 0 3.17.41 4.3 1.14l-.76 1.86c-1.16-.68-2.44-1.01-3.56-1.01-1.99 0-2.8.77-2.8 1.75 0 2.75 7.66.96 7.66 5.7 0 2.07-1.68 3.84-5.22 3.84-2.01 0-4.02-.63-5.09-1.55Zm12.69-11.55h2.4v12.91h-2.4zm15.56 10.9v2.01h-9.69v-12.91h9.43v2.01h-7.03v3.36h6.24v1.97h-6.24v3.56zm14.15-10.9v12.91h-1.97l-7.12-8.74v8.74h-2.38v-12.91h1.97l7.12 8.74v-8.74zm6.08 2.03h-4.28v-2.03h10.96v2.03h-4.28v10.88h-2.4zm7.38 4.43c0-3.82 2.95-6.64 6.96-6.64s6.95 2.8 6.95 6.64-2.95 6.64-6.95 6.64-6.96-2.82-6.96-6.64m11.49 0c0-2.64-1.94-4.54-4.54-4.54s-4.54 1.9-4.54 4.54 1.94 4.54 4.54 4.54 4.54-1.9 4.54-4.54m13.59-6.46v12.91h-2.4v-10.9h-2.73v-2.01zm12.88 8.91c0 2.56-2.08 4.19-4.72 4.19-3.52 0-5.59-2.27-5.59-6.42 0-4.43 2.58-6.86 6.33-6.86 1.29 0 2.53.28 3.39.83l-.89 1.81c-.7-.46-1.55-.63-2.45-.63-2.44 0-3.97 1.51-3.97 4.45v.02c.77-.9 2.01-1.35 3.45-1.35 2.55 0 4.45 1.55 4.45 3.97Zm-2.32.11c0-1.35-1.01-2.2-2.58-2.2s-2.62.94-2.62 2.21.96 2.18 2.68 2.18c1.49 0 2.53-.85 2.53-2.2Zm3.57-2.56c0-4.24 2.32-6.64 5.39-6.64s5.41 2.4 5.41 6.64-2.32 6.64-5.41 6.64-5.39-2.4-5.39-6.64m8.38 0c0-3.12-1.22-4.56-2.99-4.56s-2.97 1.44-2.97 4.56 1.22 4.56 2.97 4.56 2.99-1.44 2.99-4.56m3.99-3.51c0-1.73 1.38-3.1 3.14-3.1s3.14 1.37 3.14 3.1-1.38 3.08-3.14 3.08-3.14-1.37-3.14-3.08m4.98 0c0-1.07-.79-1.88-1.84-1.88s-1.86.79-1.86 1.88.81 1.86 1.86 1.86 1.84-.81 1.84-1.86m107.71 8.6.83-1.86c1.03.83 2.67 1.42 4.26 1.42 2.01 0 2.86-.72 2.86-1.68 0-2.79-7.67-.96-7.67-5.76 0-2.08 1.66-3.86 5.2-3.86 1.55 0 3.17.41 4.3 1.14l-.76 1.86c-1.16-.68-2.43-1.01-3.56-1.01-1.99 0-2.8.77-2.8 1.75 0 2.75 7.66.96 7.66 5.7 0 2.07-1.68 3.84-5.22 3.84-2.01 0-4.02-.63-5.09-1.55Zm22.38-.65v2.01h-9.69v-12.91h9.43v2.01h-7.03v3.36h6.24v1.97h-6.24v3.56zm11.12 2.02-2.64-3.78c-.17.02-.33.02-.5.02h-2.91v3.76h-2.4v-12.91h5.31c3.39 0 5.5 1.73 5.5 4.59 0 1.96-1 3.39-2.75 4.08l2.97 4.24zm-3.25-10.88h-2.8v5.15h2.8c2.1 0 3.19-.96 3.19-2.58s-1.09-2.56-3.19-2.56Zm20.08-2.04-5.63 12.91h-2.36l-5.65-12.91h2.6l4.3 9.96 4.34-9.96zm1.37 0h2.4v12.91h-2.4zm4.96 6.46c0-3.86 2.95-6.64 6.92-6.64 2.1 0 3.91.76 5.11 2.16l-1.55 1.46c-.94-1.01-2.1-1.51-3.45-1.51-2.67 0-4.61 1.88-4.61 4.54s1.94 4.54 4.61 4.54c1.35 0 2.51-.5 3.45-1.53l1.55 1.48c-1.2 1.4-3.01 2.16-5.13 2.16-3.95 0-6.9-2.79-6.9-6.64Zm14.33-6.46h2.4v12.91h-2.4zm4.96 6.46c0-3.82 2.95-6.64 6.96-6.64s6.96 2.8 6.96 6.64-2.95 6.64-6.96 6.64-6.96-2.82-6.96-6.64m11.49 0c0-2.64-1.94-4.54-4.54-4.54s-4.54 1.9-4.54 4.54 1.94 4.54 4.54 4.54 4.54-1.9 4.54-4.54m18.42 3.47h-6.46l-1.27 2.99h-2.47l5.81-12.91h2.36l5.83 12.91h-2.51zm-.79-1.88-2.44-5.65-2.42 5.65h4.85Zm22.79 1.36c0 2.21-1.73 3.5-5.05 3.5h-6.42v-12.91h6.05c3.1 0 4.76 1.31 4.76 3.36 0 1.33-.66 2.31-1.66 2.84 1.38.44 2.32 1.53 2.32 3.21m-9.08-7.53v3.56h3.39c1.66 0 2.6-.59 2.6-1.77s-.94-1.79-2.6-1.79zm6.66 7.29c0-1.29-.98-1.86-2.79-1.86h-3.87v3.73h3.87c1.81 0 2.79-.57 2.79-1.86Zm4.06-2.71c0-3.82 2.95-6.64 6.96-6.64s6.95 2.8 6.95 6.64-2.95 6.64-6.95 6.64-6.96-2.82-6.96-6.64m11.49 0c0-2.64-1.94-4.54-4.54-4.54s-4.54 1.9-4.54 4.54 1.94 4.54 4.54 4.54 4.54-1.9 4.54-4.54m13.41 6.46-2.64-3.78c-.17.02-.33.02-.5.02h-2.92v3.76h-2.4v-12.91h5.31c3.39 0 5.5 1.73 5.5 4.59 0 1.96-1 3.39-2.75 4.08l2.97 4.24h-2.58Zm-3.25-10.88h-2.8v5.15h2.8c2.1 0 3.19-.96 3.19-2.58s-1.09-2.56-3.19-2.56Zm8.28-2.04h5.65c4.19 0 7.05 2.58 7.05 6.46s-2.86 6.46-7.05 6.46h-5.65v-12.91Zm5.53 10.88c2.88 0 4.74-1.75 4.74-4.43s-1.86-4.43-4.74-4.43h-3.14v8.85h3.14Zm8.78-4.42c0-3.82 2.95-6.64 6.96-6.64s6.96 2.8 6.96 6.64-2.95 6.64-6.96 6.64-6.96-2.82-6.96-6.64m11.49 0c0-2.64-1.94-4.54-4.54-4.54s-4.54 1.9-4.54 4.54 1.94 4.54 4.54 4.54 4.54-1.9 4.54-4.54M30.24 439.15l-4.28 12.91h-2.55l-3.19-9.56-3.25 9.56h-2.56l-4.28-12.91h2.49l3.21 9.81 3.34-9.81h2.21l3.27 9.87 3.3-9.87zm1.95 0h2.4v12.91h-2.4zm8.28 2.01v3.93h6.24v2.03h-6.24v4.94h-2.4v-12.91h9.43v2.01zm9.35-2.01h2.4v12.91h-2.4zm9.88 11.55.83-1.86c1.03.83 2.67 1.42 4.26 1.42 2.01 0 2.86-.72 2.86-1.68 0-2.79-7.67-.96-7.67-5.76 0-2.08 1.66-3.86 5.2-3.86 1.55 0 3.17.41 4.3 1.14l-.76 1.86c-1.16-.68-2.44-1.01-3.56-1.01-1.99 0-2.8.77-2.8 1.75 0 2.75 7.66.96 7.66 5.7 0 2.07-1.68 3.84-5.22 3.84-2.01 0-4.02-.63-5.09-1.55Zm21.06-1.62H74.3l-1.27 2.99h-2.47l5.81-12.91h2.36l5.83 12.91h-2.51zm-.79-1.88-2.44-5.65-2.42 5.65h4.85Zm8.21-6.02H83.9v-2.03h10.96v2.03h-4.28v10.88h-2.4zm18.16 8.88v2.01h-9.69v-12.91h9.43v2.01h-7.03v3.36h6.24v1.97h-6.24v3.56zm2.67-10.91h2.4v10.88h6.75v2.03h-9.15zm11.05 0h2.4v12.91h-2.4zm8.5 2.03h-4.28v-2.03h10.96v2.03h-4.28v10.88h-2.4zm16.22 7.9h-6.46l-1.27 2.99h-2.47l5.81-12.91h2.36l5.83 12.91h-2.51zm-.79-1.88-2.44-5.65-2.42 5.65h4.85Zm6.22-8.05h2.4v10.88h6.75v2.03h-9.15zm124.56 10.91v2.01h-9.69v-12.91h9.43v2.01h-7.03v3.36h6.24v1.97h-6.24v3.56zm14.15-10.91v12.91h-1.97l-7.12-8.74v8.74h-2.38v-12.91h1.97l7.12 8.74v-8.74zm6.08 2.03h-4.28v-2.03h10.96v2.03h-4.28v10.88H295zm16.93 10.89-2.64-3.78c-.17.02-.33.02-.5.02h-2.91v3.76h-2.4v-12.91h5.31c3.39 0 5.5 1.73 5.5 4.59 0 1.96-1 3.39-2.75 4.08l2.97 4.24zm-3.25-10.88h-2.8v5.15h2.8c2.1 0 3.19-.96 3.19-2.58s-1.09-2.56-3.19-2.56Zm17.97 8.87v2.01h-9.69v-12.91h9.43v2.01h-7.03v3.36h6.24v1.97h-6.24v3.56zm5.29-8.88h-4.28v-2.03h10.96v2.03h-4.28v10.88h-2.4zm18.17 8.88v2.01h-9.69v-12.91h9.43v2.01h-7.03v3.36h6.24v1.97h-6.24v3.56zm14.14-10.91v12.91h-1.97l-7.12-8.74v8.74h-2.38v-12.91h1.97l7.12 8.74v-8.74zm3.47 0h2.4v12.91h-2.4zm17.74 12.92-.02-8.56-4.24 7.08h-1.07l-4.24-6.97v8.45h-2.29v-12.91h1.97l5.13 8.56 5.04-8.56h1.97l.02 12.91zm5.75-12.92h2.4v12.91h-2.4zm15.57 10.91v2.01h-9.69v-12.91h9.43v2.01h-7.03v3.36h6.24v1.97h-6.24v3.56zm14.15-10.91v12.91h-1.97l-7.12-8.74v8.74h-2.38v-12.91h1.97l7.12 8.74v-8.74zm6.08 2.03h-4.28v-2.03h10.96v2.03h-4.28v10.88h-2.4zm7.38 4.43c0-3.82 2.95-6.64 6.96-6.64s6.95 2.8 6.95 6.64-2.95 6.64-6.95 6.64-6.96-2.82-6.96-6.64m11.49 0c0-2.64-1.94-4.54-4.54-4.54s-4.54 1.9-4.54 4.54 1.94 4.54 4.54 4.54 4.54-1.9 4.54-4.54"/></g></g></svg>