<?xml version="1.0" encoding="UTF-8"?>
<svg id="Capa_2" data-name="Capa 2" xmlns="http://www.w3.org/2000/svg" viewBox="0 0 183.21 208.4">
  <defs>
    <style>
      .cls-1 {
        fill: #252625;
      }

      .cls-2 {
        fill: #fff;
      }

      .cls-3 {
        fill: #fcfdfd;
      }

      .cls-4 {
        fill: #0f1010;
      }

      .cls-5 {
        fill: #0d0e0d;
      }

      .cls-6 {
        fill: #202121;
      }

      .cls-7 {
        fill: #262727;
      }

      .cls-8 {
        fill: #232323;
      }

      .cls-9 {
        fill: #1f201f;
      }

      .cls-10 {
        fill: #0f100f;
      }

      .cls-11 {
        fill: #181818;
      }

      .cls-12 {
        fill: #fdfdfd;
      }

      .cls-13 {
        fill: #141414;
      }

      .cls-14 {
        fill: #101110;
      }

      .cls-15 {
        fill: #d0d1d0;
      }

      .cls-16 {
        fill: #fefefd;
      }

      .cls-17 {
        fill: #121313;
      }

      .cls-18 {
        fill: #040605;
      }

      .cls-19 {
        fill: #fefefe;
      }
    </style>
  </defs>
  <g id="Layer_2" data-name="Layer 2">
    <path class="cls-3" d="M175.95,19.59c-.02-10.43-9.14-19.38-19.27-19.4L28.01,0C16.8-.02,8.65,7.28,6.66,18.42l.11,135.71c.01,13.14,11.56,21.34,23.72,21.29l33.99-.14,88.58,.02c12.72,0,23.09-8.92,23.08-21.84l-.2-133.86Zm-2.23,134.62c0,9-7.63,18.41-17.34,18.41l-129.78,.03c-9.16,0-17.52-8.92-17.52-18.09l.02-134.68c0-10.22,9.18-17.63,18.82-17.62l127.4,.02c10.26,0,18.43,8.37,18.43,18.63l-.02,133.31Z"/>
    <g>
      <path class="cls-19" d="M127.3,148.5c-23.85-2.64-47.78-2.7-71.71,.04-.68-.95-.41-2.14,.14-3.12,.44-.78,1.53-1.38,2.95-1.51l15.27-1.38-.06-4.55,34.49-.08,.36,4.56,15.09,1.39c2.41,.22,4.18,2.01,3.47,4.65Z"/>
      <g>
        <path class="cls-2" d="M158.12,37.17c-44.76,5.55-89.71,5.52-134.41-.05-3.42-.43-5.45,2.6-5.45,5.41v92.09c.01,2.78,2.63,5.11,5.3,4.7,24.34-3.75,48.25-5.15,72.97-4.84,20.59,.26,40.37,1.23,60.91,4.75,3.81,.65,7.04-1.1,7.04-5.23l.06-90.79c0-3.72-2.34-6.55-6.42-6.04Zm1.33,93.16c-44.65-5.77-90.73-6.07-136.25-.09l-.04-87.89c44.87,5.7,91.04,5.39,136.29,.26v87.72Z"/>
        <circle class="cls-4" cx="151.33" cy="133.72" r="1.88"/>
        <g>
          <path class="cls-19" d="M106.99,85.1l-23.4-13.86-.17,30.05,23.89-14.09c.68-.4,.23-1.76-.33-2.1Z"/>
          <path class="cls-12" d="M136.24,62.22l.05,16.76c3.17-1.25,5.94-1.86,9.23-2.18l-.11-18.2c-3.4,.4-6.74,1.38-9.16,3.62Z"/>
          <path class="cls-16" d="M125.11,58.75v18.06c3.49,.17,6.15,.97,9.38,2.16l-.19-17.03c-2.83-1.87-5.93-3.2-9.18-3.18Z"/>
          <path class="cls-15" d="M146.99,63v17.41s-11.35,.5-11.35,.5l-11.99-.54-.91-18.69-.36,19.29c4.14,1.25,7.97-.46,13.04,2.33,5.89-3.26,9.8-.51,12.81-2.61l.09-18.89c-.64-.02-1.32,.67-1.32,1.2Z"/>
          <g>
            <path class="cls-19" d="M61.75,75.95l-2.45-1.43h-17.1c-.83,.01-2.12,1.76-2.97,1.38-.73-.33-1.04-1.52-2.86-1.8l.03,25.84,3.39-1.6,2.39,1.27,17.11-.06c.89,0,2.21-1.6,2.97-1.2l2.98,1.57-.05-25.62c-2.04,.82-2.85,2-3.45,1.65Z"/>
            <g>
              <path class="cls-18" d="M47.04,92.57c3.49-1.99,6.43-2.98,8.93-5.6l-9.18-5.48,.25,11.08Z"/>
              <rect class="cls-7" x="60.41" y="77.74" width="3.03" height="3.35" transform="translate(-18.45 140.08) rotate(-89.1)"/>
              <rect class="cls-6" x="38.18" y="82.74" width="3.02" height="3.52" transform="translate(-45.48 122.74) rotate(-89.02)"/>
              <path class="cls-8" d="M61.91,82.78c-.99,0-1.79,.8-1.79,1.79s.8,1.79,1.79,1.79,1.79-.8,1.79-1.79-.8-1.79-1.79-1.79Z"/>
              <path class="cls-9" d="M39.69,77.71c-.96,0-1.74,.78-1.74,1.74s.78,1.74,1.74,1.74,1.74-.78,1.74-1.74-.78-1.74-1.74-1.74Z"/>
              <rect class="cls-5" x="37.93" y="88.1" width="3.53" height="3.06" transform="translate(-.7 .31) rotate(-.45)"/>
              <rect class="cls-10" x="60.31" y="87.89" width="3.11" height="3.4" transform="translate(-29.63 148.61) rotate(-88.2)"/>
              <rect class="cls-4" x="38.2" y="93.04" width="2.94" height="3.53" transform="translate(-55.44 133.73) rotate(-89.55)"/>
              <rect class="cls-17" x="60.41" y="93.11" width="2.94" height="3.4" transform="translate(-34.36 154.44) rotate(-88.65)"/>
            </g>
          </g>
          <g>
            <path class="cls-19" d="M138.85,98.13c-2.33,1.27-4.66,1.34-7.06,.09-3.67-1.93-7.78-.57-9.32,3.44-2.11,5.46-3.57,14.42-.02,16.08,.97,.45,2.39-.05,3.3-.91l4.81-4.59h9.6s4.98,4.81,4.98,4.81c1.17,1.13,2.69,1.19,3.57,.51,2.96-2.3,1.43-10.77-.55-15.74-1.57-3.94-5.63-5.68-9.31-3.68Z"/>
            <g>
              <path class="cls-14" d="M129.76,103.42l-.68-2.2c-.09-.29-1.4-.21-1.48,.14-.4,1.65-1.44,2.53-2.86,3.01-.36,.33-.02,1.64,.33,1.54,1.81-.52,2.72,4.73,3.66,2.95,1.1-2.07,1.74-2.57,3.2-3.29,.6-1.21-2-1.62-2.17-2.15Z"/>
              <path class="cls-8" d="M142.14,106.27c-.87,0-1.57,.7-1.57,1.57s.7,1.57,1.57,1.57,1.57-.7,1.57-1.57-.7-1.57-1.57-1.57Z"/>
              <circle class="cls-1" cx="139.35" cy="104.93" r="1.47"/>
              <path class="cls-13" d="M142.24,100.67c-.85,0-1.55,.69-1.55,1.55s.69,1.55,1.55,1.55,1.55-.69,1.55-1.55-.69-1.55-1.55-1.55Z"/>
              <path class="cls-11" d="M145.15,103.49c-.82,0-1.49,.67-1.49,1.49s.67,1.49,1.49,1.49,1.49-.67,1.49-1.49-.67-1.49-1.49-1.49Z"/>
            </g>
          </g>
        </g>
      </g>
    </g>
    <g>
      <path class="cls-2" d="M9.69,206.21v2.01H0v-12.91H9.43v2.01H2.4v3.36h6.24v1.97H2.4v3.56h7.29Z"/>
      <path class="cls-2" d="M23.83,195.3v12.91h-1.97l-7.12-8.74v8.74h-2.38v-12.91h1.97l7.12,8.74v-8.74h2.38Z"/>
      <path class="cls-2" d="M29.91,197.33h-4.28v-2.03h10.96v2.03h-4.28v10.88h-2.4v-10.88Z"/>
      <path class="cls-2" d="M46.85,208.22l-2.64-3.78c-.17,.02-.33,.02-.5,.02h-2.91v3.76h-2.4v-12.91h5.31c3.39,0,5.5,1.73,5.5,4.59,0,1.96-1,3.39-2.75,4.08l2.97,4.24h-2.58Zm-3.25-10.88h-2.8v5.15h2.8c2.1,0,3.19-.96,3.19-2.58s-1.09-2.56-3.19-2.56Z"/>
      <path class="cls-2" d="M61.56,206.21v2.01h-9.69v-12.91h9.43v2.01h-7.03v3.36h6.24v1.97h-6.24v3.56h7.29Z"/>
      <path class="cls-2" d="M66.85,197.33h-4.28v-2.03h10.96v2.03h-4.28v10.88h-2.4v-10.88Z"/>
      <path class="cls-2" d="M85.02,206.21v2.01h-9.69v-12.91h9.43v2.01h-7.03v3.36h6.24v1.97h-6.24v3.56h7.29Z"/>
      <path class="cls-2" d="M99.17,195.3v12.91h-1.97l-7.12-8.74v8.74h-2.38v-12.91h1.97l7.12,8.74v-8.74h2.38Z"/>
      <path class="cls-2" d="M102.63,195.3h2.4v12.91h-2.4v-12.91Z"/>
      <path class="cls-2" d="M120.38,208.22l-.02-8.56-4.24,7.08h-1.07l-4.24-6.97v8.45h-2.29v-12.91h1.97l5.13,8.56,5.04-8.56h1.97l.02,12.91h-2.27Z"/>
      <path class="cls-2" d="M126.12,195.3h2.4v12.91h-2.4v-12.91Z"/>
      <path class="cls-2" d="M141.69,206.21v2.01h-9.69v-12.91h9.43v2.01h-7.03v3.36h6.24v1.97h-6.24v3.56h7.29Z"/>
      <path class="cls-2" d="M155.84,195.3v12.91h-1.97l-7.12-8.74v8.74h-2.38v-12.91h1.97l7.12,8.74v-8.74h2.38Z"/>
      <path class="cls-2" d="M161.92,197.33h-4.28v-2.03h10.96v2.03h-4.28v10.88h-2.4v-10.88Z"/>
      <path class="cls-2" d="M169.3,201.76c0-3.82,2.95-6.64,6.96-6.64s6.95,2.8,6.95,6.64-2.95,6.64-6.95,6.64-6.96-2.82-6.96-6.64Zm11.49,0c0-2.64-1.94-4.54-4.54-4.54s-4.54,1.9-4.54,4.54,1.94,4.54,4.54,4.54,4.54-1.9,4.54-4.54Z"/>
    </g>
  </g>
</svg>