<svg xmlns="http://www.w3.org/2000/svg" id="Capa_2" data-name="Capa 2" viewBox="0 0 59.7 59.7"><g id="HORARIOS" fill="#fff"><path d="M29.85 59.7c-4.03 0-7.94-.79-11.62-2.35-3.55-1.5-6.75-3.66-9.49-6.4a29.8 29.8 0 0 1-6.4-9.49C.78 37.78-.01 33.87-.01 29.84s.79-7.94 2.35-11.62c1.5-3.55 3.66-6.75 6.4-9.49s5.93-4.89 9.49-6.4C21.91.77 25.82-.02 29.85-.02s7.94.79 11.62 2.35c3.55 1.5 6.75 3.66 9.49 6.4s4.89 5.93 6.4 9.49c1.56 3.68 2.35 7.59 2.35 11.62s-.79 7.94-2.35 11.62c-1.5 3.55-3.66 6.75-6.4 9.49s-5.93 4.89-9.49 6.4a29.6 29.6 0 0 1-11.62 2.35m0-56.86c-3.65 0-7.19.71-10.52 2.12a26.9 26.9 0 0 0-8.59 5.79 26.9 26.9 0 0 0-5.79 8.59c-1.41 3.33-2.12 6.87-2.12 10.52s.71 7.19 2.12 10.52a26.9 26.9 0 0 0 5.79 8.59 26.9 26.9 0 0 0 8.59 5.79c3.33 1.41 6.87 2.12 10.52 2.12s7.19-.71 10.52-2.12a26.9 26.9 0 0 0 8.59-5.79 26.9 26.9 0 0 0 5.79-8.59c1.41-3.33 2.12-6.87 2.12-10.52s-.71-7.19-2.12-10.52a26.9 26.9 0 0 0-5.79-8.59 26.9 26.9 0 0 0-8.59-5.79 26.8 26.8 0 0 0-10.52-2.12"/><path d="M37.52 32.79c-.09 0-.18 0-.28-.03l-7.67-1.52c-.66-.13-1.14-.71-1.14-1.39V13.36c0-.78.63-1.42 1.42-1.42s1.42.63 1.42 1.42v15.33l6.53 1.3c.77.15 1.27.9 1.11 1.67-.13.67-.73 1.14-1.39 1.14ZM29.85 9.07c-.39 0-.71-.32-.71-.71V6.45c0-.39.32-.71.71-.71s.71.32.71.71v1.91c0 .39-.32.71-.71.71M8.36 30.56H6.45c-.39 0-.71-.32-.71-.71s.32-.71.71-.71h1.91c.39 0 .71.32.71.71s-.32.71-.71.71m21.49 23.4c-.39 0-.71-.32-.71-.71v-1.91c0-.39.32-.71.71-.71s.71.32.71.71v1.91c0 .39-.32.71-.71.71m23.4-23.4h-1.91c-.39 0-.71-.32-.71-.71s.32-.71.71-.71h1.91c.39 0 .71.32.71.71s-.32.71-.71.71m-38.6-15.2c-.18 0-.36-.07-.5-.21L12.8 13.8a.7.7 0 0 1 0-1 .7.7 0 0 1 1 0l1.35 1.35a.7.7 0 0 1 0 1c-.14.14-.32.21-.5.21M13.3 47.1c-.18 0-.36-.07-.5-.21a.7.7 0 0 1 0-1l1.35-1.35a.7.7 0 0 1 1 0 .7.7 0 0 1 0 1l-1.35 1.35c-.14.14-.32.21-.5.21m33.09 0c-.18 0-.36-.07-.5-.21l-1.35-1.35a.7.7 0 0 1 0-1 .7.7 0 0 1 1 0l1.35 1.35a.7.7 0 0 1 0 1c-.14.14-.32.21-.5.21m-1.34-31.74c-.18 0-.36-.07-.5-.21a.7.7 0 0 1 0-1l1.35-1.35a.7.7 0 0 1 1 0 .7.7 0 0 1 0 1l-1.35 1.35c-.14.14-.32.21-.5.21"/></g></svg>