<svg xmlns="http://www.w3.org/2000/svg" id="Capa_2" data-name="Capa 2" viewBox="0 0 55.52 57.69"><g id="HORARIOS" fill="#fff"><path d="M47.59 51.59H7.92c-1.72 0-3.12-1.4-3.12-3.12V4.3C4.81 1.93 6.74 0 9.1 0h37.31c2.37 0 4.3 1.93 4.3 4.3v44.17c0 1.72-1.4 3.12-3.12 3.12M9.1.96c-1.84 0-3.34 1.5-3.34 3.34v44.17c0 1.19.97 2.16 2.16 2.16h39.67c1.19 0 2.16-.97 2.16-2.16V4.3c0-1.84-1.5-3.34-3.34-3.34z"/><path d="M50.23 35.43H5.29c-.26 0-.48-.21-.48-.48s.21-.48.48-.48h44.94c.26 0 .48.21.48.48s-.21.48-.48.48M14.59 46.58c-2.14 0-3.87-1.74-3.87-3.87s1.74-3.87 3.87-3.87 3.87 1.74 3.87 3.87-1.74 3.87-3.87 3.87m0-6.79c-1.61 0-2.92 1.31-2.92 2.92s1.31 2.92 2.92 2.92 2.92-1.31 2.92-2.92-1.31-2.92-2.92-2.92m26.33 6.79c-2.14 0-3.87-1.74-3.87-3.87s1.74-3.87 3.87-3.87 3.87 1.74 3.87 3.87-1.74 3.87-3.87 3.87m0-6.79c-1.61 0-2.92 1.31-2.92 2.92s1.31 2.92 2.92 2.92 2.92-1.31 2.92-2.92-1.31-2.92-2.92-2.92M.48 17.38A.48.48 0 0 1 0 16.9V8.69c0-.25.19-.45.43-.48l4.81-.45c.26-.02.5.17.52.43s-.17.5-.43.52l-4.37.41v7.78c0 .26-.21.48-.48.48m54.56 0a.48.48 0 0 1-.48-.48V9.17h-4.33c-.26 0-.48-.21-.48-.48s.21-.48.48-.48h4.81c.26 0 .48.21.48.48v8.21c0 .26-.21.48-.48.48M18.28 57.69h-9.3a.48.48 0 0 1-.48-.48v-6.06c0-.26.21-.48.48-.48h9.31c.26 0 .48.21.48.48v6.06c0 .26-.21.48-.48.48Zm-8.83-.96h8.35v-5.1H9.46v5.1Zm37.09.96h-9.31a.48.48 0 0 1-.48-.48v-6.06c0-.26.21-.48.48-.48h9.31c.26 0 .48.21.48.48v6.06c0 .26-.21.48-.48.48m-8.83-.96h8.35v-5.1h-8.35zm5.17-25.87H12.64c-1.06 0-2.06-.45-2.76-1.24s-1.03-1.84-.91-2.89l1.34-11.32a6.62 6.62 0 0 1 4.95-5.64c4.08-1.03 8.29-1.56 12.5-1.56s8.42.52 12.5 1.56c1.31.33 2.47 1.04 3.35 2.05a6.6 6.6 0 0 1 1.6 3.59l1.34 11.32c.12 1.05-.21 2.1-.91 2.89s-1.71 1.24-2.76 1.24M27.76 9.17c-4.13 0-8.25.51-12.26 1.52-2.26.57-3.96 2.51-4.24 4.83L9.92 26.84c-.09.78.15 1.56.67 2.14s1.27.92 2.05.92h30.25c.78 0 1.53-.34 2.05-.92s.76-1.37.67-2.14l-1.34-11.32a5.69 5.69 0 0 0-4.24-4.83 49.8 49.8 0 0 0-12.26-1.52Z"/><path d="M27.76 30.86a.48.48 0 0 1-.48-.48V8.69c0-.26.21-.48.48-.48s.48.21.48.48v21.69c0 .26-.21.48-.48.48m6.66-25.67H21.09c-.26 0-.48-.21-.48-.48s.21-.48.48-.48h13.33c.26 0 .48.21.48.48s-.21.48-.48.48"/></g></svg>