<?xml version="1.0" encoding="UTF-8"?>
<svg id="Capa_2" data-name="Capa 2" xmlns="http://www.w3.org/2000/svg" viewBox="0 0 187.65 208.88">
  <defs>
    <style>
      .cls-1 {
        fill: #fff;
      }

      .cls-2 {
        fill: #090909;
      }

      .cls-3 {
        fill: #070908;
      }

      .cls-4 {
        fill: #fffffe;
      }

      .cls-5 {
        fill: #fdfdfd;
      }

      .cls-6 {
        fill: #212221;
      }

      .cls-7 {
        fill: #111211;
      }

      .cls-8 {
        fill: #f4f5f5;
      }

      .cls-9 {
        fill: #f7f8f7;
      }

      .cls-10 {
        fill: #0c0e0d;
      }

      .cls-11 {
        fill: #1f1f1f;
      }

      .cls-12 {
        fill: #fffefe;
      }

      .cls-13 {
        fill: #fefefe;
      }

      .cls-14 {
        fill: #fcfcfc;
      }
    </style>
  </defs>
  <g id="Layer_2" data-name="Layer 2">
    <g>
      <path class="cls-14" d="M162.35,0L29.63,.25c-9.29,.02-18.34,9.21-18.35,18.72l-.05,135.15c0,13.32,12.09,21.38,24.39,21.34l126.33-.48c11.1-.04,20.26-10.49,20.26-21.69l.03-134.13c-1.83-10.72-9.08-18.44-19.91-19.15Zm17.42,154.14c0,9.85-8.23,17.32-17.69,18.72l-131.04-.28c-9.28-.02-17.55-9.44-17.55-18.69V19.82c0-8.87,8.07-17.38,16.85-17.4l129.35-.29c10.75-.02,20.12,7.46,20.12,18.8l-.04,133.21Z"/>
      <g>
        <path class="cls-12" d="M88.73,93.88c-2.13-.56-4.25-.88-5.45-2.58l3.81-8.34-11.2,4.03c-2.79,1.45-4.54,3.89-5.98,6.6l-9.15,17.27-7.12-19.53-13.99,5.78,9.49,30.94c1.23,4.03,3.98,6.94,7.92,7.79,3.7,.8,7.61-.83,9.96-4.01l11.76-15.89,.45,38.08c1.76,.79,3.46,.81,4.34-.35-1.96-2.27-1.29-5.57,.72-5.72l5.62-.41c2.73-5.57,8-8.91,14.44-8.97v-17.88s-18.33-22.12-18.33-22.12l2.69-4.71Z"/>
        <path class="cls-4" d="M122.78,51.1l.37-5.21c-7.01,5.41-18.1,5.29-26.97,3.31-2.56-.57-4.7-1.53-6.66-3.32l.41,5.24c-.77,.26-1.95,.61-2.24,1.06-1.5,4.12,.38,7.91,3.94,10.11,1.14,5.02,3.68,9.31,7.68,12.29,5.16,3.84,12.03,3.08,16.14-1.85,2.95-2.96,4.62-6.71,5.79-10.93,3.03-1.53,4.08-4.2,3.9-7.16,.41-1.77-.46-3.15-2.36-3.54Z"/>
        <path class="cls-13" d="M121.02,80.56l-9.88,25.74c-2.26,.56-.92-4.98-3.22-10.57,.72-1.35,2.73-2.74,2.52-4.41-.22-1.71-2.31-2.75-3.54-4.19l8.54-7.1c1.26-1.05,1.67-2.78,.28-4.19-4.99,5.41-12.78,5.31-18.46,.49-.5-.42-1.56,.51-1.31,1.22,.15,.43,.15,1.04,.8,1.62l9.03,8-3.71,4.42,2.73,4.25-2.8,11.16-9.53-24.9c-.26-.68-.82-.79-1.31-.68-.37,.08-.54,.3-.75,.8l-3.53,8.26c1.47,.48,4.46,.54,5.17,2.17,.73,1.68-1.62,3.77-2.84,5.39l17.01,20.62,17.2-20.63c-1.27-2.05-2.77-3.29-3.3-5.57l5.91-2.06c-1.76-3.27-2.36-6.47-5-9.84Z"/>
        <path class="cls-13" d="M46.22,69.26c-4.32,2.09-.07,6.29-2.03,9.41-3.47-3.37-6.94-5.95-9.33-10.06-1.03-1.77-4.72-4.07-6.48-2.03-2.59,3-1.53,8-.13,11.36,1.74,4.16,4.72,7.03,7.95,10.04l5.52,5.15,8.75-3.71c.77-4.17,.55-8.16-1.03-12.1l-3.22-8.06Z"/>
        <rect class="cls-8" x="77.58" y="157.71" width="78.17" height="3.18"/>
        <path class="cls-13" d="M89.56,41.73c1.71,2.56,3.96,3.61,6.47,4.33,8.42,2.44,20.8,2.48,27.38-3.91-10.36-5.18-22.81-4.62-33.85-.42Z"/>
        <path class="cls-9" d="M93.6,155.15l24.88-.1c2.4-.22,5.57-2.05,7.19-4.07l-39.85,.03c2.5,1.99,5.39,3.18,7.77,4.14Z"/>
        <path class="cls-5" d="M105.64,141.53c-4.83,.15-9.89,1.95-12.52,6.82h25.66c-3.1-4.84-7.9-6.98-13.14-6.82Z"/>
        <g>
          <path class="cls-4" d="M149.12,95.12c-.76-3.13-3.86-5.36-6.83-6.41l-16.68-5.92,3.87,9.15-5.58,2.14,2.68,4.49-19.23,23.21v16.55c6.63,.3,11.85,3.87,14.94,9.55,2.26,.25,4.52,.22,6.66-.51,.17-3.8-.56-7.16,.45-10.77l7.56-.2,.93-17.7,4.5,17.61,6.07,.11c3.95,.07,6.9,1.55,9.17,4.84,.84-5.49,.21-10.16-.99-15.12l-7.51-31.02Z"/>
          <path class="cls-10" d="M129,106.57c-2.15,1.94-4.73,1.64-7.97,1.2,1.06,3.03,8.36,4.55,8.35,4.56,3.53-2.05,6.92-.93,8.03-4.47-3.33,.22-5.96,.58-8.41-1.28Z"/>
          <path class="cls-2" d="M134.45,114.49c-3.74-.54-7.42-.45-11.35-.16-1.1,.08-.94,3.73,.29,3.74l11.02,.04c.87-.92,.8-3.52,.03-3.63Z"/>
          <path class="cls-6" d="M112.04,134.29c-.95,0-1.73,.77-1.73,1.73s.77,1.73,1.73,1.73,1.73-.77,1.73-1.73-.77-1.73-1.73-1.73Z"/>
          <circle class="cls-11" cx="112.07" cy="127" r="1.69"/>
        </g>
        <g>
          <path class="cls-13" d="M114.01,20.85c-5.48-3.05-9.87-2.98-15.32,.01-4.18,2.29-9.2,3.41-12.79,7.16-1.15,1.2-2.97,2.84-2.8,4.76,.27,2.96,2.85,5.36,5.37,6.47,11.7-4.74,24.4-4.52,35.89,0,2.54-1.74,4.44-3.25,4.97-5.87,.38-1.85-.98-3.4-2.05-4.68-3.49-4.18-8.9-5.42-13.27-7.85Z"/>
          <path class="cls-3" d="M109.56,27.36c-2.65-1.53-3.86-1.54-6.51,.02-1.75,1.03-4.84,.14-6.94,.2,1.4,2.55,3.91,3.99,6.97,3.85,1.83,2.33,4.48,2.18,6.65-.06,3.16,.17,5.66-1.45,6.99-3.71-2.37-.19-5.38,.74-7.16-.3Z"/>
        </g>
        <g>
          <path class="cls-13" d="M147.85,139.64l-15.94-.05,.28,10.38c.05,2,1.37,3.69,2.53,4.48,1.7,1.17,3.75,1.11,5.75,.75,3.96,.96,7.03-.49,8.74-4.35,3.01,.27,4.46-1.31,5.5-2.72,1.11-1.51,1.57-3.97,.03-5.62-1.55-1.66-4.54-2.88-6.9-2.89Z"/>
          <path class="cls-7" d="M149.81,142.57l-.28,6.53c3.33-.33,3.92-2.18,4.04-3.85,.12-1.78-1.45-3.12-3.76-2.68Z"/>
        </g>
      </g>
    </g>
    <g>
      <path class="cls-1" d="M0,207.33l.83-1.86c1.03,.83,2.67,1.42,4.26,1.42,2.01,0,2.86-.72,2.86-1.68,0-2.79-7.67-.96-7.67-5.76,0-2.08,1.66-3.86,5.2-3.86,1.55,0,3.17,.41,4.3,1.14l-.76,1.86c-1.16-.68-2.43-1.01-3.56-1.01-1.99,0-2.8,.77-2.8,1.75,0,2.75,7.66,.96,7.66,5.7,0,2.07-1.68,3.84-5.22,3.84-2.01,0-4.02-.63-5.09-1.55Z"/>
      <path class="cls-1" d="M22.37,206.68v2.01H12.69v-12.91h9.43v2.01h-7.03v3.36h6.24v1.97h-6.24v3.56h7.29Z"/>
      <path class="cls-1" d="M33.49,208.7l-2.64-3.78c-.17,.02-.33,.02-.5,.02h-2.91v3.76h-2.4v-12.91h5.31c3.39,0,5.5,1.73,5.5,4.59,0,1.96-1,3.39-2.75,4.08l2.97,4.24h-2.58Zm-3.25-10.88h-2.8v5.15h2.8c2.1,0,3.19-.96,3.19-2.58s-1.09-2.56-3.19-2.56Z"/>
      <path class="cls-1" d="M50.33,195.78l-5.63,12.91h-2.36l-5.65-12.91h2.6l4.3,9.96,4.34-9.96h2.4Z"/>
      <path class="cls-1" d="M51.69,195.78h2.4v12.91h-2.4v-12.91Z"/>
      <path class="cls-1" d="M56.65,202.24c0-3.86,2.95-6.64,6.92-6.64,2.1,0,3.91,.76,5.11,2.16l-1.55,1.46c-.94-1.01-2.1-1.51-3.45-1.51-2.67,0-4.61,1.88-4.61,4.54s1.94,4.54,4.61,4.54c1.35,0,2.51-.5,3.45-1.53l1.55,1.48c-1.2,1.4-3.01,2.16-5.13,2.16-3.95,0-6.9-2.79-6.9-6.64Z"/>
      <path class="cls-1" d="M70.98,195.78h2.4v12.91h-2.4v-12.91Z"/>
      <path class="cls-1" d="M75.94,202.24c0-3.82,2.95-6.64,6.96-6.64s6.96,2.8,6.96,6.64-2.95,6.64-6.96,6.64-6.96-2.82-6.96-6.64Zm11.49,0c0-2.64-1.94-4.54-4.54-4.54s-4.54,1.9-4.54,4.54,1.94,4.54,4.54,4.54,4.54-1.9,4.54-4.54Z"/>
      <path class="cls-1" d="M105.86,205.71h-6.46l-1.27,2.99h-2.47l5.81-12.91h2.36l5.83,12.91h-2.51l-1.29-2.99Zm-.79-1.88l-2.44-5.65-2.42,5.65h4.85Z"/>
      <path class="cls-1" d="M127.86,205.19c0,2.21-1.73,3.5-5.05,3.5h-6.42v-12.91h6.05c3.1,0,4.76,1.31,4.76,3.36,0,1.33-.66,2.31-1.66,2.84,1.38,.44,2.32,1.53,2.32,3.21Zm-9.08-7.53v3.56h3.39c1.66,0,2.6-.59,2.6-1.77s-.94-1.79-2.6-1.79h-3.39Zm6.66,7.29c0-1.29-.98-1.86-2.79-1.86h-3.87v3.73h3.87c1.81,0,2.79-.57,2.79-1.86Z"/>
      <path class="cls-1" d="M129.5,202.24c0-3.82,2.95-6.64,6.96-6.64s6.95,2.8,6.95,6.64-2.95,6.64-6.95,6.64-6.96-2.82-6.96-6.64Zm11.49,0c0-2.64-1.94-4.54-4.54-4.54s-4.54,1.9-4.54,4.54,1.94,4.54,4.54,4.54,4.54-1.9,4.54-4.54Z"/>
      <path class="cls-1" d="M154.4,208.7l-2.64-3.78c-.17,.02-.33,.02-.5,.02h-2.92v3.76h-2.4v-12.91h5.31c3.39,0,5.5,1.73,5.5,4.59,0,1.96-1,3.39-2.75,4.08l2.97,4.24h-2.58Zm-3.25-10.88h-2.8v5.15h2.8c2.1,0,3.19-.96,3.19-2.58s-1.09-2.56-3.19-2.56Z"/>
      <path class="cls-1" d="M159.43,195.78h5.65c4.19,0,7.05,2.58,7.05,6.46s-2.86,6.46-7.05,6.46h-5.65v-12.91Zm5.53,10.88c2.88,0,4.74-1.75,4.74-4.43s-1.86-4.43-4.74-4.43h-3.14v8.85h3.14Z"/>
      <path class="cls-1" d="M173.74,202.24c0-3.82,2.95-6.64,6.96-6.64s6.96,2.8,6.96,6.64-2.95,6.64-6.96,6.64-6.96-2.82-6.96-6.64Zm11.49,0c0-2.64-1.94-4.54-4.54-4.54s-4.54,1.9-4.54,4.54,1.94,4.54,4.54,4.54,4.54-1.9,4.54-4.54Z"/>
    </g>
  </g>
</svg>