<svg xmlns="http://www.w3.org/2000/svg" id="Capa_2" data-name="Capa 2" viewBox="0 0 453.65 458.13"><g id="Layer_2" data-name="Layer 2"><g id="iconos_suite" data-name="iconos suite"><g id="Generative_Object" data-name="Generative Object"><path fill="#fcfdfd" d="M175.92 20.23C175.9 9.6 166.61.49 156.3.48L25.27.28C13.85.26 5.55 7.69 3.53 19.04l.11 138.2c.01 13.38 11.78 21.73 24.15 21.68l34.62-.14 90.21.02c12.95 0 23.52-9.08 23.5-22.24l-.2-136.32Zm-2.27 137.08c0 9.17-7.77 18.75-17.66 18.75l-132.16.03c-9.33 0-17.84-9.09-17.84-18.42l.02-137.15c0-10.41 9.35-17.95 19.16-17.95l129.73.02c10.45 0 18.76 8.52 18.76 18.97l-.02 135.75Zm-1.25 110.96c-.01-10.63-9.31-19.73-19.62-19.75l-131.03-.2c-11.42-.03-19.72 7.42-21.74 18.75l.11 138.19c.01 13.39 11.78 21.73 24.16 21.69l34.62-.14h90.2c12.95.01 23.51-9.07 23.5-22.23zm-2.28 137.08c0 9.17-7.77 18.75-17.66 18.75l-132.17.03c-9.33 0-17.84-9.09-17.84-18.41l.03-137.15c0-10.41 9.35-17.95 19.16-17.95l129.74.03c10.45 0 18.76 8.51 18.76 18.96l-.03 135.75Zm279.01-137.08c-.02-10.63-9.31-19.74-19.62-19.75l-131.03-.2c-11.42-.02-19.72 7.41-21.74 18.76l.11 138.2c.01 13.38 11.78 21.73 24.15 21.68l34.62-.14 90.21.02c12.95 0 23.52-9.08 23.5-22.24l-.2-136.32Zm-2.27 137.08c0 9.17-7.77 18.75-17.66 18.75l-132.16.03c-9.33 0-17.84-9.09-17.84-18.42l.02-137.15c0-10.41 9.35-17.95 19.16-17.95l129.73.02c10.45 0 18.76 8.52 18.76 18.97l-.02 135.75Z"/><path fill="#bcbcbb" d="M116.27 43.98c-.6.11-1.82 1.17-1.46 1.66.56.76 1.38 1.55 1.73 1.26l1.61-1.36c.21-.38-1.24-1.68-1.88-1.56"/><path fill="#fefefe" d="M95.61 45.81c-2.03-5.85-.38-11.52 3.45-16.18-8.06 1.64-13.07 8.78-12.75 16.35s6.02 14.34 13.92 15.24c5.71.65 11.07-2.28 13.71-7.18-7.28 3.29-15.94-1.32-18.33-8.23"/><path fill="#eaeaea" d="M116.08 26.74c-.77 2-1.88 3.1-3.92 3.87 2.32.94 2.64 1.9 3.64 4.22 1.18-2.64 1.8-3.35 3.54-4.26-1.94-.95-2.67-1.83-3.26-3.82Z"/><path fill="#cfd0cf" d="m103.872 38.343 2.059-1.985 2.02 2.095-2.06 1.985z"/><path fill="#fdfdfd" d="M92.67 389.84c-1.58-.16-2.27-.4-2.91-1.16-.42-.51-.13-2.7.71-2.59 12.5 1.65 24.28-2.58 32.58-12.07 13.72-15.67 7.71-29.88 10.99-31.14.58-.22 1.76.29 1.93 1.31 1.67 11.21-1.91 21.83-8.9 30.43-8.51 10.47-20.39 16.67-34.41 15.21Z"/><path fill="#fcfcfc" d="M127.41 345.49c1.6 19.38-14.02 36.97-34.66 35.34-.82-.06-1.61-.91-1.92-1.3-.41-.51-.65-1.55.33-2.7 18.34 2.56 33.92-12.31 32.8-30.88-.08-1.29.08-1.88 1.1-2.18.76-.22 2.23.29 2.35 1.71Z"/><path fill="#fbfbfb" d="M109.6 366.65c-6.97 5.61-17.92 5.61-17.97 2.64-.02-1.41 1.17-2 2.75-1.84 11.75 1.23 21.15-9.08 20.4-20.76-.07-1.09.33-1.99 1.08-2.41 3.8-2.13 4.63 13.61-6.26 22.37m11.75 24.27c-2.61 7.04-32.69 11.74-32.88 6-.14-4.31 13.75 3.05 31.68-8.28.6-.38 1.42 1.67 1.2 2.28m20.73-23.14c-.65 1.64-3.88 1.08-4.03-.09 3.02-7.43 4.73-15.75 3.83-23.59-.12-1.08.91-1.92 1.5-2.05 4-.92 2.75 15.57-1.3 25.73"/><path fill="#fff" d="M140.86 390.2c-.37-1.72-.3-3.4-.07-5.27l5.07-.88c.98 1.9 1.22 3.99 1.02 6.25l-6.01-.1Zm7.91-.14-.8-6.24c.11-.95 2.16-1.63 3.13-1.77 1.62 2.38 2.68 4.86 2.9 7.92-1.78.46-3.06.5-5.23.09m2.45 9.79c-1.21.28-3.38-.67-3.23-1.69l.9-5.85c1.63-.48 3.18-.41 5.06-.17-.2 2.75-.93 5.19-2.74 7.72Zm-12.37-9.67-5.96.28c-.29-2.19.08-4.21.88-6.43l4.84 1.09c.88.92.63 3.36.24 5.05Zm-6.65 8.22c-1.11.89-2.02 1.3-3.22 1.63-1.95-2.24-2.88-4.96-2.88-7.9 1.87-.23 3.12-.23 4.88.02l1.23 6.25Zm13.95-.53-5.38-.89-.09-4.88 6.33-.04c-.01 1.97-.2 3.28-.87 5.81Zm-7.23-.87-5.18.94c-.72-1.97-1.09-3.77-.87-5.86l6.12-.04c.21 1.7.23 2.92-.07 4.96m-7.88-7.1c-1.65.6-3.14.65-5.16.14.24-2.74 1.04-5.12 2.74-7.35.53-.69 2.96.24 3.07 1.19.23 2-.34 3.52-.65 6.02m14.33-7.47c-1.75.81-3.08.88-4.63.49l.12-6.45c2.51 1.13 3.9 3.39 4.52 5.96Zm-.08 17.19c-.5 2.6-2.1 5.04-4.53 5.92v-6.49c1.5-.39 2.8-.23 4.53.57m-6.2-16.5c-1.76.05-3.06-.1-4.79-.61.77-2.77 2.17-4.77 4.67-6.01l.11 6.62Zm-.22 22.36c-2.42-1.06-3.67-3.28-4.56-5.99 1.73-.52 2.96-.7 4.71-.68l-.15 6.68Zm-6.11-23.72c-.68.24-2.38-.5-2.5-1.26.98-1.69 2.79-2.87 4.87-3.43l-2.36 4.68Zm16.54-1.68c.62.76-1.69 2.43-2.3 1.35l-2.49-4.38c1.88.45 3.45 1.39 4.78 3.03Zm-.15 21.27c-.54 1.79-2.36 2.71-4.03 3.41.16-1.51 1.25-3.5 2.16-4.38.25-.25 1.85.5 1.86.97Zm-14.32 3.37c-1.46-.67-2.67-1.37-4-2.75-.41-.42.32-1.32.75-1.49 1.54-.6 2.07 1.15 3.26 4.23Z"/><path fill="#fefefe" d="M97.48 347.44c1.04 1.07-.52 3.11-1.74 2.67-1.78-.64-2.63-2.48-3.69-4.11l-11.52 11.27c-3.51-6.81-2.13-14.73 2.7-20.26 5.51-6.3 13.97-8.64 21.72-4.67L94 343.85z"/><path fill="#fefefe" d="m81.28 315.94 4.92-4.69-2.35-2.42-4.58 5.03-10.82-10.84c-2.8 1.56-4.45 4.13-6.6 6.25l-9.61 9.52c-.29.29-.38.88-.34 1.11.07.28.52.53.87.84l.14.14 9.28 10.06-4.52 4.82 1.94 2.11 4.56-4.66 11.53 11.74c2.26-8.3 8.43-14.4 16.76-17.29l-11.19-11.71Zm-23.99 4.92c-.37-.76-.81-1.31-1.38-1.63-.25-.04-.49-.14-.72-.29.25.06.49.15.72.29.83.17 1.73-.27 2.68-1.28l10.86 11.11c.46.9 1.01 1.52 1.64 1.87.31.01.6.13.88.32-.31-.06-.62-.17-.88-.32-.79-.11-1.66.29-2.61 1.18zm15.16 16.95c-.6-.13-1.42-1-1.55-1.69-.24-1.19 1.59-1.98 2.42-3.68.25 1.84 1.21 2.11 1.6.25.37.44.86 1.1.91 1.62.14 1.18-2.39 3.74-3.38 3.5m8.86-17.22c-.35.79-1.54.98-2.3.18l-11.24-11.74c-.46-.49-.38-1.21-.15-1.59.3-.49 1.26-.77 1.9-.14l11.39 11.52c.56.56.59 1.38.41 1.77Z"/><path fill="#fefefe" d="M55.92 319.23c-.25-.04-.49-.14-.72-.29.25.06.49.15.72.29m16.06 12.02c-.31-.06-.62-.17-.88-.32.31.01.6.13.88.32m22.13-13-7.89-7.71 14.75-14.72c2.96 2.45 5.15 4.93 7.51 7.92zm16.46-16.65-7.54-7.99c4.79-4.77 9.47-9.34 14.17-14.72l7.83 7.88zm-75.463 41.725 14.783-14.788 7.85 7.848-14.783 14.788zm-16.499 16.657 14.566-14.709 7.972 7.895-14.565 14.709zM35.89 377.59l-7.61-7.53 14.53-14.88 7.62 7.98zm16.26-16.68-7.28-7.75 14.38-14.85 7.65 7.79zm41.072-76.991 14.64-14.691 7.792 7.764-14.64 14.691zm5.838 9.661-14.58 15.16-7.31-8.11 14.37-14.86z"/><path fill="#fdfdfd" d="M61.71 298.92c-1.39.06-2.45 1.67-3.8 2.35-.88-.32-2.22-1.63-3.14-1.54-1.76.17-5.12 2.74-5.62 5.46-.18.99 1.37 3.04.9 3.92-.98 1.86-2.22 3.18-1.97 4.77.15.96.69 3.21 1.97 3.11l15.8-15.74c-.89-1.7-2.46-2.4-4.15-2.33Z"/><path fill="#fefefe" d="M55.92 319.23c-.25-.04-.49-.14-.72-.29.25.06.49.15.72.29m16.06 12.02c-.31-.06-.62-.17-.88-.32.31.01.6.13.88.32"/><path fill="#fff" d="m99.41 353.12 2.87 5.59-1.05 1.05-3.8-1.91 1.92 3.81-1.04 1.05-5.62-2.81 1.01-1.02 3.93 2-1.99-3.95.9-.91 3.97 2.01-2.03-3.96.93-.94Zm.54-.55.97-.98 4.24 4.2-.97.98zm3.73-2.19 1.12 1.11 1.94-1.96.79.78-1.94 1.96 1.55 1.53-.97.98-4.24-4.2 3.18-3.21.79.78-2.2 2.22Zm2.08-3.67.97-.98 4.24 4.2-.97.98z"/><path fill="#fcfcfc" d="M429.83 0 294.68.25C285.22.27 276 9.62 276 19.31l-.05 137.62c0 13.56 12.31 21.78 24.84 21.73l128.64-.49c11.31-.04 20.63-10.68 20.64-22.08l.03-136.59C448.24 8.59 440.86.72 429.82 0Zm17.74 156.97c0 10.03-8.38 17.64-18.02 19.06l-133.45-.28c-9.45-.02-17.87-9.61-17.87-19.03V20.18c0-9.04 8.22-17.7 17.16-17.72l131.73-.3c10.94-.02 20.49 7.6 20.49 19.14l-.04 135.66Z"/><path fill="#fffefe" d="M354.86 95.6c-2.17-.57-4.33-.9-5.55-2.63l3.88-8.49-11.4 4.1c-2.85 1.47-4.63 3.96-6.09 6.72l-9.31 17.58-7.26-19.89-14.24 5.89 9.67 31.51c1.26 4.1 4.05 7.07 8.07 7.94 3.77.81 7.75-.85 10.15-4.09l11.97-16.18.46 38.78c1.79.8 3.52.82 4.42-.36-2-2.31-1.31-5.67.73-5.82l5.73-.41c2.78-5.68 8.14-9.08 14.7-9.13v-18.2l-18.66-22.52 2.74-4.8Z"/><path fill="#fffffe" d="m389.53 52.04.37-5.3c-7.13 5.51-18.43 5.38-27.47 3.37-2.61-.58-4.78-1.55-6.79-3.38l.42 5.34c-.79.26-1.99.62-2.28 1.08-1.52 4.2.39 8.06 4.01 10.3 1.16 5.12 3.75 9.48 7.82 12.51 5.26 3.91 12.25 3.14 16.44-1.89 3-3.02 4.7-6.84 5.89-11.13 3.08-1.56 4.15-4.27 3.97-7.29.42-1.81-.47-3.2-2.4-3.61Z"/><path fill="#fefefe" d="m387.74 82.04-10.06 26.21c-2.3.57-.94-5.07-3.28-10.76.73-1.38 2.79-2.79 2.57-4.49-.22-1.74-2.35-2.8-3.61-4.27l8.69-7.23c1.28-1.07 1.7-2.83.28-4.26-5.09 5.51-13.02 5.41-18.79.5-.51-.43-1.59.52-1.34 1.25.15.44.15 1.06.82 1.65l9.2 8.14-3.78 4.5 2.78 4.33-2.85 11.37-9.7-25.36c-.27-.7-.83-.81-1.34-.7-.38.08-.55.31-.76.81l-3.59 8.41c1.49.49 4.54.55 5.26 2.21.75 1.71-1.65 3.84-2.89 5.49l17.32 21 17.52-21.01c-1.29-2.09-2.82-3.35-3.36-5.67l6.02-2.1c-1.79-3.33-2.4-6.59-5.1-10.02Zm-76.17-11.51c-4.4 2.13-.07 6.41-2.07 9.58-3.54-3.44-7.07-6.06-9.51-10.25-1.05-1.8-4.81-4.15-6.6-2.07-2.63 3.05-1.55 8.15-.13 11.57 1.77 4.24 4.81 7.16 8.09 10.22l5.62 5.24 8.91-3.78c.79-4.24.56-8.31-1.05-12.32l-3.28-8.21Z"/><path fill="#f4f5f5" d="M343.51 160.6h79.61v3.24h-79.61z"/><path fill="#fefefe" d="M355.71 42.49c1.74 2.61 4.03 3.67 6.59 4.41 8.57 2.48 21.18 2.53 27.88-3.98-10.55-5.28-23.23-4.71-34.47-.43"/><path fill="#f7f8f7" d="m359.82 158 25.34-.1c2.44-.22 5.68-2.09 7.32-4.15l-40.58.03c2.55 2.03 5.49 3.24 7.92 4.22"/><path fill="#fdfdfd" d="M372.08 144.13c-4.92.15-10.07 1.98-12.75 6.95h26.13c-3.16-4.93-8.04-7.11-13.38-6.95"/><path fill="#fffffe" d="m424.01 128.45-7.65-31.58c-.77-3.19-3.93-5.46-6.95-6.53l-16.99-6.03 3.94 9.32-5.68 2.18 2.73 4.57-19.59 23.63v16.86c6.75.31 12.07 3.94 15.21 9.72 2.3.25 4.6.23 6.79-.51.17-3.87-.57-7.29.46-10.97l7.7-.2.95-18.03 4.58 17.93 6.18.11c4.03.07 7.03 1.57 9.34 4.92.85-5.59.21-10.35-1.01-15.4Zm-45.38-.84a1.72 1.72 0 1 1 0 3.44 1.72 1.72 0 0 1 0-3.44m-.03 12.66c-.97 0-1.76-.79-1.76-1.76s.79-1.76 1.76-1.76 1.76.79 1.76 1.76-.79 1.76-1.76 1.76m22.79-19.98-11.23-.05c-1.26 0-1.41-3.72-.3-3.81 4-.3 7.74-.39 11.56.16.78.11.85 2.76-.03 3.7m-5.13-5.9s-7.42-1.56-8.5-4.64c3.3.46 5.92.76 8.11-1.22 2.49 1.9 5.17 1.53 8.56 1.31-1.13 3.61-4.58 2.47-8.17 4.56Z"/><path fill="#fefefe" d="M394.13 29.22c-3.55-4.25-9.07-5.52-13.52-8-5.58-3.11-10.05-3.03-15.6.01-4.25 2.34-9.37 3.47-13.03 7.29-1.17 1.22-3.02 2.9-2.85 4.85.27 3.01 2.9 5.46 5.46 6.59 11.91-4.82 24.84-4.6 36.54 0 2.58-1.77 4.52-3.31 5.07-5.97.38-1.89-1-3.46-2.09-4.76Zm-17.89 2.72c-2.21 2.28-4.91 2.43-6.77.06-3.12.14-5.67-1.32-7.09-3.92 2.14-.07 5.29.84 7.07-.21 2.7-1.58 3.93-1.58 6.63-.02 1.82 1.05 4.87.11 7.29.3-1.36 2.3-3.91 3.95-7.12 3.78Zm45.85 113.2c-1.58-1.7-4.62-2.93-7.03-2.94l-16.23-.05.29 10.57c.06 2.04 1.4 3.75 2.58 4.56 1.73 1.19 3.82 1.13 5.85.77 4.04.97 7.16-.5 8.9-4.43 3.07.27 4.54-1.33 5.6-2.77 1.13-1.54 1.6-4.04.03-5.72Zm-5.32 6.7.29-6.65c2.35-.44 3.95.92 3.82 2.73-.12 1.7-.72 3.58-4.11 3.92m-17.18 247.71c-24.29-2.69-48.66-2.75-73.03.04-.69-.97-.42-2.18.15-3.18.45-.8 1.56-1.41 3-1.54l15.55-1.4-.06-4.63 35.13-.08.37 4.64 15.36 1.42c2.45.23 4.26 2.05 3.53 4.73"/><path fill="#fff" d="M430.97 286.17c-45.58 5.66-91.36 5.62-136.87-.05-3.48-.43-5.55 2.65-5.55 5.51v93.78c.01 2.83 2.68 5.2 5.39 4.78 24.79-3.82 49.14-5.25 74.31-4.93 20.96.27 41.11 1.25 62.02 4.83 3.88.66 7.17-1.12 7.17-5.32l.06-92.46c0-3.79-2.38-6.67-6.54-6.15Zm1.35 94.87c-45.47-5.88-92.39-6.18-138.75-.09l-.04-89.5c45.69 5.81 92.71 5.49 138.79.26z"/><circle cx="424.05" cy="384.49" r="1.92" fill="#0f1010"/><path fill="#fefefe" d="m378.9 334.98-23.83-14.12-.17 30.6 24.33-14.34c.69-.41.24-1.79-.34-2.14Z"/><path fill="#fdfdfd" d="m408.69 311.68.05 17.07c3.23-1.27 6.05-1.9 9.4-2.22l-.11-18.53c-3.46.41-6.87 1.4-9.33 3.68Z"/><path fill="#fefefd" d="M397.36 308.15v18.39c3.55.17 6.26.99 9.55 2.2l-.19-17.34c-2.89-1.9-6.04-3.25-9.35-3.24Z"/><path fill="#d0d1d0" d="M419.63 312.47v17.73l-11.56.5-12.21-.55-.93-19.03-.36 19.64c4.22 1.27 8.12-.47 13.28 2.38 5.99-3.32 9.98-.52 13.05-2.65l.09-19.24c-.65-.02-1.35.68-1.35 1.22Z"/><path fill="#fefefe" d="m332.83 325.66-2.49-1.46h-17.41c-.84.01-2.16 1.79-3.03 1.4-.75-.34-1.06-1.54-2.91-1.83l.03 26.31 3.46-1.63 2.44 1.29 17.43-.06c.91 0 2.25-1.63 3.02-1.22l3.04 1.6-.05-26.09c-2.08.84-2.9 2.04-3.51 1.68Z"/><path fill="#040605" d="M317.85 342.58c3.55-2.02 6.55-3.04 9.09-5.71l-9.35-5.58z"/><path fill="#262727" d="m331.266 330.695.048-3.09 3.41.054-.048 3.09z"/><path fill="#202121" d="m308.543 335.863.053-3.08 3.59.062-.053 3.08z"/><path fill="#232323" d="M332.99 332.62c-1.01 0-1.82.81-1.82 1.82s.81 1.82 1.82 1.82 1.82-.81 1.82-1.82-.81-1.82-1.82-1.82"/><path fill="#1f201f" d="M310.37 327.46c-.98 0-1.77.79-1.77 1.77s.79 1.77 1.77 1.77 1.77-.79 1.77-1.77-.79-1.77-1.77-1.77"/><path fill="#0d0e0d" d="m308.565 338.036 3.59-.028.025 3.11-3.59.028z"/><path fill="#0f100f" d="m331.152 341.055.1-3.168 3.458.108-.1 3.169z"/><path fill="#0f1010" d="m308.545 346.354.024-3 3.59.028-.024 3z"/><path fill="#121313" d="m331.184 346.306.07-2.999 3.46.082-.07 2.999z"/><path fill="#fefefe" d="M411.34 348.24c-2.38 1.29-4.75 1.37-7.19.09-3.73-1.97-7.92-.58-9.49 3.5-2.15 5.56-3.63 14.68-.02 16.37.99.46 2.43-.05 3.36-.93l4.9-4.68h9.77l5.07 4.9c1.19 1.15 2.74 1.21 3.64.52 3.01-2.34 1.45-10.97-.56-16.02-1.6-4.01-5.73-5.78-9.48-3.74Z"/><path fill="#101110" d="m402.09 353.64-.7-2.24c-.09-.3-1.42-.22-1.51.14-.4 1.68-1.46 2.57-2.91 3.07-.37.33-.02 1.67.33 1.57 1.85-.53 2.77 4.82 3.73 3 1.12-2.11 1.77-2.61 3.26-3.35.61-1.24-2.04-1.65-2.21-2.19Z"/><path fill="#232323" d="M414.69 356.54c-.88 0-1.6.72-1.6 1.6s.72 1.6 1.6 1.6 1.6-.72 1.6-1.6-.72-1.6-1.6-1.6"/><circle cx="411.85" cy="355.17" r="1.5" fill="#252625"/><path fill="#141414" d="M414.8 350.84c-.87 0-1.58.71-1.58 1.58s.71 1.58 1.58 1.58 1.58-.71 1.58-1.58-.71-1.58-1.58-1.58"/><path fill="#181818" d="M417.75 353.7a1.52 1.52 0 1 0-.001 3.039 1.52 1.52 0 0 0 .001-3.039"/></g><path fill="#fdfdfd" d="m118.9 128.84-35.96-.24c-1.06 0-1.63-2.28-1.57-3.13.52-6.77-7.11-5.15-9.94-8.65-2.4-2.96-1.41-8.49 1.79-12.34.77-.93.39-2.77-.03-4.12 2.15-1.76 4.65-2.94 7.34-3.84 3.61 8.43 5.64 18.62 14.96 18.72l29.03.32c2.22.02 4.16 3.92 3.99 5.72-.51 5.16-4.59 7.59-9.61 7.56"/><path fill="#fdfefd" d="M131.54 118.12c-1.94-2.89-4.1-5.96-7.68-5.97l-28.34-.09c-4.72-.01-7.7-4.43-8.23-8.7 13.23-3.53 25.92-5.62 39.34-6.23 3.16-.15 6.73 1.02 8.49 3.66 3.68 5.54 2.17 13.33-3.57 17.33Z"/><path fill="#fdfdfd" d="M71.56 118.12c.92.71-1.87 1.35-3.83.91l-52.61-11.84c-1.95-.59-4.98-.69-5.84-3-1.25-3.35.18-8.71 3.19-10.98 2.26-1.7 6.22-1.44 8.81-.95 6.64 1.26 11.87 4.69 17.24 8.46 1.54 1.08 27.95 5.47 34.05 2.4 0 0-7.11 10.29-1.01 14.99Zm42.06-32c-15.46.81-28.27 2.94-42 10.78-3.56-2.18-6.95-2.25-7.13-5.59-.08-1.44.61-3.3 2.27-4.06 9.17-4.17 18.8-6.92 28.91-7.46l18.12-.96c2.35-.12 3.82 1.78 3.85 3.75.03 2.1-1.65 3.41-4.03 3.54Z"/><path fill="#fdfdfc" d="m165.97 109.88-24.06 3.1c.24-5.85-1.67-9.97-4.93-14.49l26.79-.69c3.29-.08 5.86 1.74 6.44 4.73.47 2.46-.58 6.87-4.24 7.34Z"/><path fill="#fbfcfc" d="m119.31 132.53 6.87 15.05c.67 1.47.1 3.15-.64 4.21-.89 1.28-2.4 2.12-4.34 2.12H84.73a5.67 5.67 0 0 1-4.41-2.11c-1.44-1.81-1.55-3.65-.82-5.78l4.58-13.57c1.43-.29 2.61-.37 4.28 0l-4.93 16.7 38.81.25-7.37-16.94c1.27-.4 3.36-.49 4.43.06Z"/><path fill="#fdfdfc" d="m116.73 145.79-28.7.16 4.16-13.63 18.43-.06z"/><path fill="#fcfcfc" d="M72.55 157.35c-3.32.41-5.48.39-8.16.04l-6.02-33.13c3.04 1.36 5.82 2.24 9.1 3.02l5.07 30.07ZM41.57 98.86c-8.61-5.62-16.02-10.72-26.02-10.15 4.53-9.6 20.1-4.84 26.07 4.03 1.2 1.78 1.52 3.92-.05 6.13Z"/><path fill="#fafafa" d="m76.93 153.21-1.3.67-4.06-24.44c2.57.22 4.26.14 6.44-.49.82.86 2.36 2.56 1.97 3.89l-4.36 14.69c-.51 1.72.39 4.28 1.31 5.67Z"/><path fill="#fff" d="M40.61 207.08h-6.46l-1.27 2.99h-2.47l5.81-12.91h2.36l5.83 12.91H41.9zm-.79-1.88-2.44-5.65-2.42 5.65h4.85Zm5.14 3.5.83-1.86c1.03.83 2.67 1.42 4.26 1.42 2.01 0 2.86-.72 2.86-1.68 0-2.79-7.67-.96-7.67-5.75 0-2.08 1.66-3.86 5.2-3.86 1.55 0 3.17.41 4.3 1.14l-.76 1.86c-1.16-.68-2.44-1.01-3.56-1.01-1.99 0-2.8.77-2.8 1.75 0 2.75 7.66.96 7.66 5.7 0 2.07-1.68 3.84-5.22 3.84-2.01 0-4.02-.63-5.09-1.55Zm12.69-11.54h2.4v12.91h-2.4zm15.57 10.9v2.01h-9.69v-12.91h9.43v2.01h-7.03v3.36h6.24v1.97h-6.24v3.56zm14.14-10.9v12.91h-1.97l-7.12-8.74v8.74h-2.38v-12.91h1.97l7.12 8.74v-8.74zm6.09 2.03h-4.28v-2.03h10.96v2.03h-4.28v10.88h-2.4zm7.37 4.42c0-3.82 2.95-6.64 6.96-6.64s6.95 2.8 6.95 6.64-2.95 6.64-6.95 6.64-6.96-2.82-6.96-6.64m11.49 0c0-2.64-1.94-4.54-4.54-4.54s-4.54 1.9-4.54 4.54 1.94 4.54 4.54 4.54 4.54-1.9 4.54-4.54m13.59-6.45v12.91h-2.4v-10.9h-2.73v-2.01zm13.05 9.2c0 2.4-2.08 3.89-5.29 3.89s-5.26-1.49-5.26-3.89c0-1.42.74-2.47 2.07-3.08-1.03-.57-1.6-1.49-1.6-2.71 0-2.21 1.94-3.6 4.8-3.6s4.83 1.38 4.83 3.6c0 1.22-.59 2.14-1.64 2.71 1.35.61 2.1 1.66 2.1 3.08Zm-2.42-.07c0-1.27-1.11-2.07-2.88-2.07s-2.84.79-2.84 2.07 1.07 2.08 2.84 2.08 2.88-.78 2.88-2.08m-5.31-5.61c0 1.11.92 1.81 2.44 1.81s2.47-.7 2.47-1.81c0-1.16-1-1.83-2.47-1.83s-2.44.66-2.44 1.83m9.27 2.93c0-4.24 2.32-6.64 5.39-6.64s5.41 2.4 5.41 6.64-2.32 6.64-5.41 6.64-5.39-2.4-5.39-6.64m8.38 0c0-3.12-1.22-4.56-2.99-4.56s-2.97 1.44-2.97 4.56 1.22 4.56 2.97 4.56 2.99-1.44 2.99-4.56m4-3.5c0-1.73 1.38-3.1 3.14-3.1s3.14 1.37 3.14 3.1-1.38 3.08-3.14 3.08-3.14-1.37-3.14-3.08m4.98 0c0-1.07-.79-1.88-1.84-1.88s-1.86.79-1.86 1.88.81 1.86 1.86 1.86 1.84-.81 1.84-1.86m107.25 8.59.83-1.86c1.03.83 2.68 1.42 4.26 1.42 2.01 0 2.86-.72 2.86-1.68 0-2.79-7.67-.96-7.67-5.75 0-2.08 1.66-3.86 5.2-3.86 1.55 0 3.17.41 4.3 1.14l-.76 1.86c-1.16-.68-2.44-1.01-3.56-1.01-1.99 0-2.8.77-2.8 1.75 0 2.75 7.66.96 7.66 5.7 0 2.07-1.68 3.84-5.22 3.84-2.01 0-4.02-.63-5.09-1.55Zm22.37-.64v2.01h-9.69v-12.91h9.43v2.01h-7.03v3.36h6.24v1.97h-6.24v3.56zm11.12 2.01-2.64-3.78c-.17.02-.33.02-.5.02h-2.91v3.76h-2.4v-12.91h5.31c3.39 0 5.5 1.73 5.5 4.59 0 1.96-1 3.39-2.75 4.08l2.97 4.24zm-3.25-10.88h-2.8v5.15h2.8c2.1 0 3.19-.96 3.19-2.58s-1.09-2.56-3.19-2.56Zm20.09-2.03-5.63 12.91h-2.36l-5.65-12.91h2.6l4.3 9.96 4.33-9.96h2.4Zm1.36 0h2.4v12.91h-2.4zm4.96 6.45c0-3.86 2.95-6.64 6.92-6.64 2.1 0 3.91.76 5.11 2.16l-1.55 1.46c-.94-1.01-2.1-1.51-3.45-1.51-2.67 0-4.61 1.88-4.61 4.54s1.94 4.54 4.61 4.54c1.35 0 2.51-.5 3.45-1.53l1.55 1.48c-1.2 1.4-3.01 2.16-5.13 2.16-3.95 0-6.9-2.79-6.9-6.64Zm14.33-6.45h2.4v12.91h-2.4zm4.96 6.45c0-3.82 2.95-6.64 6.96-6.64s6.96 2.8 6.96 6.64-2.95 6.64-6.96 6.64-6.96-2.82-6.96-6.64m11.49 0c0-2.64-1.94-4.54-4.54-4.54s-4.54 1.9-4.54 4.54 1.94 4.54 4.54 4.54 4.54-1.9 4.54-4.54m18.42 3.47h-6.46l-1.27 2.99h-2.47l5.81-12.91h2.36l5.83 12.91h-2.51zm-.79-1.88-2.44-5.65-2.42 5.65h4.85Zm22.8 1.37c0 2.21-1.73 3.5-5.05 3.5h-6.42v-12.91h6.05c3.1 0 4.76 1.31 4.76 3.36 0 1.33-.66 2.31-1.66 2.84 1.38.44 2.32 1.53 2.32 3.21m-9.08-7.53v3.56h3.39c1.66 0 2.6-.59 2.6-1.77s-.94-1.79-2.6-1.79zm6.66 7.29c0-1.29-.98-1.86-2.79-1.86h-3.88v3.73h3.88c1.81 0 2.79-.57 2.79-1.86Zm4.05-2.72c0-3.82 2.95-6.64 6.96-6.64s6.95 2.8 6.95 6.64-2.95 6.64-6.95 6.64-6.96-2.82-6.96-6.64m11.49 0c0-2.64-1.94-4.54-4.54-4.54s-4.54 1.9-4.54 4.54 1.94 4.54 4.54 4.54 4.54-1.9 4.54-4.54m13.41 6.46-2.64-3.78c-.17.02-.33.02-.5.02h-2.92v3.76h-2.4v-12.91h5.31c3.39 0 5.5 1.73 5.5 4.59 0 1.96-1 3.39-2.75 4.08l2.97 4.24h-2.58Zm-3.25-10.88h-2.8v5.15h2.8c2.1 0 3.19-.96 3.19-2.58s-1.09-2.56-3.19-2.56Zm8.29-2.03h5.65c4.19 0 7.05 2.58 7.05 6.46s-2.86 6.46-7.05 6.46h-5.65v-12.91Zm5.53 10.88c2.88 0 4.74-1.75 4.74-4.43s-1.86-4.43-4.74-4.43h-3.14v8.86zm8.78-4.43c0-3.82 2.95-6.64 6.96-6.64s6.95 2.8 6.95 6.64-2.95 6.64-6.95 6.64-6.96-2.82-6.96-6.64m11.49 0c0-2.64-1.94-4.54-4.54-4.54s-4.54 1.9-4.54 4.54 1.94 4.54 4.54 4.54 4.54-1.9 4.54-4.54M35.59 445.03l-4.28 12.91h-2.55l-3.19-9.56-3.25 9.56h-2.56l-4.28-12.91h2.49l3.21 9.81 3.34-9.81h2.21L30 454.9l3.3-9.87zm1.95 0h2.4v12.91h-2.4zm8.28 2.01v3.93h6.24V453h-6.24v4.94h-2.4v-12.91h9.43v2.01zm9.35-2.01h2.4v12.91h-2.4zm9.88 11.55.83-1.86c1.03.83 2.67 1.42 4.26 1.42 2.01 0 2.86-.72 2.86-1.68 0-2.79-7.67-.96-7.67-5.75 0-2.08 1.66-3.86 5.2-3.86 1.55 0 3.17.41 4.3 1.14l-.76 1.86c-1.16-.68-2.44-1.01-3.56-1.01-1.99 0-2.8.77-2.8 1.75 0 2.75 7.66.96 7.66 5.7 0 2.07-1.68 3.84-5.22 3.84-2.01 0-4.02-.63-5.09-1.55Zm21.07-1.63h-6.46l-1.27 2.99h-2.47l5.81-12.91h2.36l5.83 12.91h-2.51zm-.79-1.88-2.44-5.65-2.42 5.65h4.85Zm8.2-6.01h-4.28v-2.03h10.96v2.03h-4.28v10.88h-2.4zm18.17 8.87v2.01h-9.69v-12.91h9.43v2.01h-7.03v3.36h6.24v1.97h-6.24v3.56zm2.67-10.9h2.4v10.88h6.75v2.03h-9.15zm11.05 0h2.4v12.91h-2.4zm8.5 2.03h-4.28v-2.03h10.96v2.03h-4.28v10.88h-2.4zm16.21 7.89h-6.46l-1.27 2.99h-2.47l5.81-12.91h2.36l5.83 12.91h-2.51zm-.79-1.88-2.44-5.65-2.42 5.65h4.85Zm6.23-8.04h2.4v10.88h6.75v2.03h-9.15zm124.56 10.9v2.01h-9.69v-12.91h9.43v2.01h-7.03v3.36h6.24v1.97h-6.24v3.56zm14.14-10.9v12.91h-1.97l-7.12-8.74v8.74h-2.38v-12.91h1.97l7.12 8.74v-8.74zm6.09 2.03h-4.28v-2.03h10.96v2.03h-4.28v10.88h-2.4zm16.93 10.88-2.64-3.78c-.17.02-.33.02-.5.02h-2.91v3.76h-2.4v-12.91h5.31c3.39 0 5.5 1.73 5.5 4.59 0 1.96-1 3.39-2.75 4.08l2.97 4.24zm-3.25-10.88h-2.8v5.15h2.8c2.1 0 3.19-.96 3.19-2.58s-1.09-2.56-3.19-2.56Zm17.96 8.87v2.01h-9.69v-12.91h9.43v2.01h-7.03v3.36h6.24v1.97h-6.24v3.56zm5.29-8.87h-4.28v-2.03h10.96v2.03h-4.28v10.88h-2.4zm18.17 8.87v2.01h-9.69v-12.91h9.43v2.01h-7.03v3.36h6.24v1.97h-6.24v3.56zm14.15-10.9v12.91h-1.97l-7.12-8.74v8.74h-2.38v-12.91h1.97l7.12 8.74v-8.74zm3.46 0h2.4v12.91h-2.4zm17.75 12.91-.02-8.56-4.24 7.08h-1.07l-4.24-6.97v8.45h-2.29v-12.91h1.97l5.13 8.56 5.04-8.56h1.97l.02 12.91zm5.75-12.91h2.4v12.91h-2.4zm15.56 10.9v2.01h-9.69v-12.91h9.43v2.01h-7.03v3.36h6.24v1.97h-6.24v3.56zm14.15-10.9v12.91h-1.97l-7.12-8.74v8.74h-2.38v-12.91h1.97l7.12 8.74v-8.74zm6.08 2.03h-4.28v-2.03h10.96v2.03h-4.28v10.88h-2.4zm7.38 4.43c0-3.82 2.95-6.64 6.96-6.64s6.95 2.8 6.95 6.64-2.95 6.64-6.95 6.64-6.96-2.82-6.96-6.64m11.49 0c0-2.64-1.94-4.54-4.54-4.54s-4.54 1.9-4.54 4.54 1.94 4.54 4.54 4.54 4.54-1.9 4.54-4.54"/></g></g></svg>