<?xml version="1.0" encoding="UTF-8"?>
<svg id="Capa_2" data-name="Capa 2" xmlns="http://www.w3.org/2000/svg" viewBox="0 0 169.48 208.4">
  <defs>
    <style>
      .cls-1 {
        fill: #fff;
      }

      .cls-2 {
        fill: #fcfdfd;
      }

      .cls-3 {
        fill: #e2e3e2;
      }

      .cls-4 {
        fill: #0d0d0d;
      }

      .cls-5 {
        fill: #cfd0cf;
      }

      .cls-6 {
        fill: #fdfdfd;
      }

      .cls-7 {
        fill: #020403;
      }

      .cls-8 {
        fill: #fbfbfb;
      }

      .cls-9 {
        fill: #d6d7d6;
      }

      .cls-10 {
        fill: #101110;
      }

      .cls-11 {
        fill: #d9d9d9;
      }

      .cls-12 {
        fill: #fefefe;
      }

      .cls-13 {
        fill: #fcfcfc;
      }
    </style>
  </defs>
  <g id="Layer_2" data-name="Layer 2">
    <path class="cls-2" d="M169.29,19.59c-.02-10.43-9.14-19.38-19.27-19.4L21.35,0C10.14-.02,1.99,7.28,0,18.42L.11,154.13c.01,13.14,11.56,21.34,23.72,21.29l33.99-.14,88.58,.02c12.72,0,23.09-8.92,23.08-21.84l-.2-133.86Zm-2.23,134.62c0,9-7.63,18.41-17.34,18.41l-129.78,.03c-9.16,0-17.52-8.92-17.52-18.09l.02-134.68c0-10.22,9.18-17.63,18.82-17.62l127.4,.02c10.26,0,18.43,8.37,18.43,18.63l-.02,133.31Z"/>
    <g>
      <path class="cls-6" d="M91,138.97c-1.55-.16-2.23-.39-2.86-1.13-.42-.5-.13-2.65,.7-2.54,12.28,1.62,23.84-2.54,32-11.85,13.47-15.39,7.57-29.34,10.79-30.58,.57-.22,1.73,.29,1.9,1.28,1.64,11.01-1.88,21.44-8.74,29.89-8.36,10.28-20.02,16.37-33.79,14.94Z"/>
      <path class="cls-13" d="M125.11,95.42c1.57,19.03-13.76,36.3-34.03,34.71-.81-.06-1.58-.9-1.88-1.28-.4-.5-.64-1.52,.32-2.65,18.01,2.52,33.31-12.09,32.21-30.32-.08-1.26,.08-1.84,1.08-2.14,.75-.22,2.19,.29,2.31,1.68Z"/>
      <path class="cls-8" d="M107.63,116.2c-6.84,5.51-17.59,5.51-17.65,2.59-.02-1.38,1.15-1.97,2.7-1.81,11.54,1.21,20.77-8.92,20.03-20.39-.07-1.07,.32-1.95,1.06-2.37,3.73-2.1,4.54,13.37-6.15,21.97Z"/>
      <path class="cls-8" d="M119.16,140.03c-2.56,6.92-32.1,11.53-32.29,5.9-.14-4.23,13.5,2.99,31.11-8.13,.58-.37,1.4,1.64,1.17,2.24Z"/>
      <path class="cls-8" d="M139.52,117.31c-.64,1.61-3.81,1.06-3.96-.09,2.97-7.29,4.64-15.46,3.76-23.17-.12-1.06,.9-1.88,1.47-2.01,3.93-.91,2.7,15.29-1.27,25.27Z"/>
      <path class="cls-3" d="M90.64,108.71l4.11,1.81c-.69-1.75-1.64-2.79-1.42-4.44l4.18,1.17c-.74-1.63-2.16-2.56-1.3-4.41,2.17,1.45,2.53,4.05,3.63,6.29-1.46,1.21-2.76-.22-4.54-.65,.67,1.13,1.77,3.56,.76,4.07-2.21,.15-3.85-1.8-5.36-2.42-.51-.5-.3-1.14-.06-1.42Z"/>
      <path class="cls-11" d="M105.25,99.04l-1.47,2.62,.69,3.04c-2.32-1.01-3.03-3.05-4.66-4.81,.87-1.45,1.72-2.83,3.88-3.38-.06,1.43-1.5,1.83-2.19,3.88,1.51,.15,1.65-1.1,3.75-1.35Z"/>
      <path class="cls-5" d="M109.15,99.92c-2.11-.57-3.99-2.44-4.81-5.18,2.04,.99,3.75,2.39,4.81,5.18Z"/>
      <rect class="cls-9" x="99.57" y="100.42" width="1.35" height="6.78" transform="translate(-43.99 99) rotate(-44.09)"/>
      <g>
        <path class="cls-1" d="M138.33,139.33c-.37-1.69-.3-3.34-.07-5.17l4.98-.87c.96,1.87,1.2,3.92,1,6.14l-5.91-.1Z"/>
        <path class="cls-1" d="M146.09,139.19l-.78-6.13c.11-.93,2.12-1.6,3.07-1.74,1.59,2.34,2.63,4.78,2.85,7.78-1.75,.45-3.01,.49-5.14,.09Z"/>
        <path class="cls-1" d="M148.49,148.8c-1.19,.28-3.32-.66-3.17-1.66l.89-5.75c1.6-.47,3.12-.41,4.97-.17-.2,2.7-.92,5.09-2.69,7.58Z"/>
        <path class="cls-1" d="M136.35,139.3l-5.85,.28c-.29-2.15,.08-4.14,.86-6.31l4.75,1.07c.87,.9,.62,3.3,.23,4.96Z"/>
        <path class="cls-1" d="M129.81,147.37c-1.09,.87-1.98,1.28-3.16,1.6-1.91-2.2-2.83-4.87-2.83-7.75,1.83-.23,3.07-.23,4.79,.02l1.2,6.13Z"/>
        <path class="cls-1" d="M143.52,146.86l-5.28-.88-.09-4.79,6.22-.04c0,1.94-.19,3.22-.85,5.71Z"/>
        <path class="cls-1" d="M136.42,146l-5.09,.92c-.71-1.93-1.07-3.7-.86-5.76l6.01-.04c.2,1.67,.23,2.87-.07,4.87Z"/>
        <path class="cls-1" d="M128.68,139.03c-1.62,.59-3.08,.64-5.07,.14,.23-2.69,1.02-5.03,2.69-7.22,.52-.68,2.91,.24,3.02,1.17,.22,1.97-.33,3.45-.64,5.91Z"/>
        <path class="cls-1" d="M142.75,131.7c-1.72,.8-3.02,.87-4.55,.48l.11-6.34c2.46,1.11,3.83,3.33,4.43,5.86Z"/>
        <path class="cls-1" d="M142.67,148.58c-.49,2.55-2.06,4.95-4.45,5.81v-6.38c1.47-.39,2.75-.23,4.45,.56Z"/>
        <path class="cls-1" d="M136.58,132.37c-1.73,.05-3.01-.1-4.7-.6,.76-2.72,2.13-4.68,4.59-5.9l.11,6.51Z"/>
        <path class="cls-1" d="M136.37,154.33c-2.38-1.04-3.61-3.22-4.48-5.89,1.7-.51,2.9-.68,4.62-.67l-.15,6.56Z"/>
        <path class="cls-1" d="M130.37,131.03c-.67,.24-2.34-.49-2.46-1.23,.96-1.66,2.74-2.81,4.78-3.37l-2.32,4.6Z"/>
        <path class="cls-1" d="M146.61,129.39c.6,.74-1.66,2.38-2.26,1.33l-2.44-4.31c1.85,.44,3.39,1.36,4.7,2.98Z"/>
        <path class="cls-1" d="M146.46,150.27c-.53,1.76-2.32,2.67-3.95,3.35,.16-1.48,1.22-3.44,2.13-4.3,.25-.24,1.82,.49,1.83,.95Z"/>
        <path class="cls-1" d="M132.4,153.59c-1.44-.65-2.63-1.34-3.93-2.7-.4-.42,.32-1.3,.73-1.46,1.51-.59,2.03,1.13,3.2,4.16Z"/>
      </g>
      <g>
        <path class="cls-12" d="M95.73,97.34c1.02,1.05-.51,3.05-1.71,2.62-1.75-.63-2.58-2.43-3.62-4.04l-11.31,11.07c-3.45-6.69-2.09-14.46,2.65-19.89,5.41-6.19,13.72-8.49,21.33-4.58l-10.76,11.3,3.42,3.53Z"/>
        <path class="cls-12" d="M73.57,82.85c-.39,1.83-1.33,1.57-1.58-.24-.42-.13-1.31-.72-1.31-1.18-1-.17-1.83-.88-2.48-2.14l-10.67-10.92c-1.22,1.29-2.33,1.61-3.34,.97l-2.23,1.91c-.34-.37-.91-.64-.99-.96-.05-.22,.03-.8,.33-1.09l9.44-9.35c2.62-.88,6.43,2.66,7.88,5.71l4.61,3.83c.83,.69,4.25,5.64,6.51,5.37,.71-.09,1.07-1.35,2.01-2.01,1.61-1.13,6.1,2.39,4.53,4.5-1.49,2-5.19,3.69-7.17,5.83-1.75-.44-4.03-1.88-5.56-.22Z"/>
        <path class="cls-12" d="M92.42,68.67l-7.75-7.57,14.48-14.46c2.91,2.4,5.06,4.85,7.38,7.78l-14.11,14.25Z"/>
        <path class="cls-12" d="M108.58,52.32l-7.4-7.85c4.7-4.68,9.3-9.17,13.92-14.46l7.69,7.74-14.2,14.56Z"/>
        <rect class="cls-12" x="35.32" y="84.43" width="20.53" height="10.9" transform="translate(-50.21 58.58) rotate(-45.01)"/>
        <rect class="cls-12" x="19.16" y="100.81" width="20.33" height="11.02" transform="translate(-66.85 52.34) rotate(-45.28)"/>
        <polygon class="cls-12" points="35.24 126.94 27.77 119.55 42.04 104.94 49.53 112.77 35.24 126.94"/>
        <polygon class="cls-12" points="51.21 110.56 44.07 102.95 58.18 88.37 65.7 96.02 51.21 110.56"/>
        <rect class="cls-12" x="92.38" y="26.14" width="20.37" height="10.8" transform="translate(7.83 81.93) rotate(-45.1)"/>
        <polygon class="cls-12" points="97.28 44.44 82.96 59.33 75.78 51.37 89.89 36.78 97.28 44.44"/>
        <path class="cls-6" d="M49.15,59.7c.46-.86-1.07-2.88-.88-3.85,.5-2.67,3.8-5.19,5.52-5.36,.9-.09,2.22,1.2,3.08,1.52,1.33-.67,2.37-2.25,3.73-2.31,1.66-.07,3.2,.62,4.07,2.29l-15.52,15.46c-1.26,.1-1.79-2.11-1.93-3.05-.25-1.56,.96-2.86,1.93-4.68Z"/>
        <path class="cls-7" d="M70.69,81.43l-3.4,2.76-11.65-11.69c-.99-1-1.66-1.95-1.44-3.16l3.33-2.89,11.24,11.51c1.08,1.11,1.92,2.07,1.91,3.47Z"/>
        <g>
          <path class="cls-12" d="M51.97,71.25c-1.06-1.04,1.09-2.9,2.23-1.91,.87,.2,1.56,.83,2.06,1.89l11,11.05c1.31-1.22,2.45-1.5,3.43-.85,1.52-.65,1.61-.44,1.31,1.18l.57,1.59c-4.03,4.19,1.14,1.62,1.01-1.35-1.03-3,3.18-2.13,5.21-1.3,6.72-3.81,8.01-6.39,3.87-7.72-1.66,2.32-3.46,2.8-5.41,1.45-4.39-3.9-8.48-8.04-12.26-12.43-1.59-.94-3-1.94-4.23-3,2.1-2.08,3.73-4.6,6.47-6.13l10.63,10.64,4.5-4.93,2.31,2.38-4.83,4.61,10.98,11.5c-8.18,2.83-14.23,8.82-16.46,16.98l-11.32-11.53-4.48,4.57-1.9-2.07,4.44-4.73-9.11-9.88Z"/>
          <path class="cls-4" d="M77.58,71.15l-11.03-11.53c-.46-.48-.38-1.19-.16-1.56,.29-.49,1.25-.77,1.86-.14l11.19,11.3c.55,.56,.58,1.35,.4,1.75-.34,.77-1.51,.97-2.26,.18Z"/>
          <path class="cls-10" d="M73.57,82.85c.35,.43,.84,1.08,.9,1.6,.14,1.16-2.34,3.66-3.33,3.43-.59-.14-1.4-.98-1.53-1.67-.22-1.16,1.56-1.93,2.38-3.61l1.58,.24Z"/>
          <path class="cls-12" d="M74.81,86.14c.44-.46,1.07-.16,1.16,.13,.06,.2-.43,.59-.59,.75-.43,.45-1.17-.26-.57-.88Z"/>
        </g>
      </g>
    </g>
    <g>
      <path class="cls-1" d="M30.24,195.31l-4.28,12.91h-2.55l-3.19-9.56-3.25,9.56h-2.56l-4.28-12.91h2.49l3.21,9.81,3.34-9.81h2.21l3.27,9.87,3.3-9.87h2.29Z"/>
      <path class="cls-1" d="M32.19,195.31h2.4v12.91h-2.4v-12.91Z"/>
      <path class="cls-1" d="M40.47,197.32v3.93h6.24v2.03h-6.24v4.94h-2.4v-12.91h9.43v2.01h-7.03Z"/>
      <path class="cls-1" d="M49.82,195.31h2.4v12.91h-2.4v-12.91Z"/>
      <path class="cls-1" d="M59.7,206.85l.83-1.86c1.03,.83,2.67,1.42,4.26,1.42,2.01,0,2.86-.72,2.86-1.68,0-2.79-7.67-.96-7.67-5.76,0-2.08,1.66-3.86,5.2-3.86,1.55,0,3.17,.41,4.3,1.14l-.76,1.86c-1.16-.68-2.44-1.01-3.56-1.01-1.99,0-2.8,.77-2.8,1.75,0,2.75,7.66,.96,7.66,5.7,0,2.07-1.68,3.84-5.22,3.84-2.01,0-4.02-.63-5.09-1.55Z"/>
      <path class="cls-1" d="M80.76,205.23h-6.46l-1.27,2.99h-2.47l5.81-12.91h2.36l5.83,12.91h-2.51l-1.29-2.99Zm-.79-1.88l-2.44-5.65-2.42,5.65h4.85Z"/>
      <path class="cls-1" d="M88.18,197.33h-4.28v-2.03h10.96v2.03h-4.28v10.88h-2.4v-10.88Z"/>
      <path class="cls-1" d="M106.34,206.21v2.01h-9.69v-12.91h9.43v2.01h-7.03v3.36h6.24v1.97h-6.24v3.56h7.29Z"/>
      <path class="cls-1" d="M109.01,195.31h2.4v10.88h6.75v2.03h-9.15v-12.91Z"/>
      <path class="cls-1" d="M120.06,195.31h2.4v12.91h-2.4v-12.91Z"/>
      <path class="cls-1" d="M128.56,197.33h-4.28v-2.03h10.96v2.03h-4.28v10.88h-2.4v-10.88Z"/>
      <path class="cls-1" d="M144.78,205.23h-6.46l-1.27,2.99h-2.47l5.81-12.91h2.36l5.83,12.91h-2.51l-1.29-2.99Zm-.79-1.88l-2.44-5.65-2.42,5.65h4.85Z"/>
      <path class="cls-1" d="M150.21,195.31h2.4v10.88h6.75v2.03h-9.15v-12.91Z"/>
    </g>
  </g>
</svg>